<svg id="Layer_1" xmlns="http://www.w3.org/2000/svg" viewBox="0 0 1600 360"><style>.st0{fill:url(#SVGID_1_)}</style><linearGradient id="SVGID_1_" gradientUnits="userSpaceOnUse" x1="799.909" y1="200.118" x2="799.909" y2="346.822"><stop offset="0" stop-color="#c22342"/><stop offset="1" stop-color="#a31e37"/></linearGradient><path class="st0" d="M1114.8 294.3v-30.2h-9.5v12.6h-81.5v-.6l-.7-.6h-5.8v-21.7h-5.1v-15.1h-2.7v-63.9c0-.6-1.1-.7-1.1-.7v-14c-.5-.7-1.8-.4-1.8-.4v-11.2h-.4v-.6h-1.7v-2.1h-.4v-.6h-2.3v-.6l-1.5-3.7v-1.7h-.4v-.8h-.4v-.5h-.5v-15l-.6-1V110h-.9l-.3-.6v-15h-2v15.1l-.2.6h-1v12l-.6.9v15h-.4v.5h-.3v1h-.3v1.5l-1.5 2.6v.9h-.6v.6h-1.8v.6h-.3v2h-1.3v.4h-.9v11.4c-2 .1-1.9.6-1.9.6v13.7c-1 .1-1.1.9-1.1.9v64h-2.8v15h-5v9.2h-4.1v-13.7h-7.4V266h-18v-95.1h-3.3v7.8H941v-3.1h-1.2v-4.7h-8.7l-.2-31.9-1.2 31.9h-9.4v7.1h-1.4v-7.8h-1.7v72.6h-7.5V262H906c-.4-9.8-1.3-35.5-.6-35.7 1-.3 1-1.4 1-1.4l-2.8-24.9s0-3.2-3.6-3.3c-3.6-.1-4.2 3.8-4.2 3.8s-6.9 24.4-7 25.2c-.2.8 1 1.5 1 1.5l-.2 4.6-.5 1.6.3.5v.6l-.4 1.2.2.3-1 15.4h-50.5l-.1-3.4-5.9-.6-.3-2.3-5-.6-1.6-18.7.5-1.1s-1.1-11.7-.6-12.2c.5-.6-.4-2.3-.1-3.4.2-1.1.8-3.8.8-3.8.9-.3 1.5-1.4 1.5-1.4.2-1.6-.9-9.3-.9-9.3.9-4.4-1.4-15.1-1.4-15.1 1-1 1.8-6.4 1.8-6.4l1.3-.1 4-7c3-1.7 6.8-7.1 6.8-7.1.9-.4 1.9-2.1 1.9-2.1.3-.6-.9-3.4-.9-3.4l1.1-2.4-.6-1.9.8-.6-.4-1.4-12.6-4.1-.4 2-1.5-.3-3 4.8c-.5-2.1-3.7-3.6-3.7-3.6.4-2.3-1.1-4.7-1.6-7.1-.5-2.4-1-5.1-1.4-6-.4-.9-1-1.3-1.5-2s-1.9-1.6-1.9-1.6c-.4-.5-.9-.8-1.4-1.1l-1.4-7s.5-.4.8-1.3c.3-.9-.6-4.4-1-5.3-.4-.9 0-1.9 0-1.9.3.7 1.3-.1 1.3-.1l-.4-2.6.3-1 9.1-1.3-8.7-.7-.2-2.4 9.3-5.8-9.4 4.3c0-.7-1.1-2.7-1.1-2.7l5.2-10.1-6.7 8.8c-.4-.9-2.9-1.6-2.9-1.6V86.5l-2 11.1c-.9-.3-2.9.9-2.9.9l-5-9.1 3.3 10.3c-1.3.6-2.3 2.7-2.3 2.7l-.4-.4-4-1.1c-.2-.6-.4-1-.4-1 0-2.7-.6-12.5-1.1-14.8-.5-2.3 0-11.5 0-11.5-.4-6.8-2.5-8.7-2.5-8.7l.1-1.4c1.1-.9.8-1.8.8-1.8 4.8-2.1 2.1-4.7 2.1-4.7l-.1-2.1c-.5-1.3-2.4-1.6-2.4-1.6 1-1.1 0-2.9-.6-4.1-.6-1.3-1.4-1.6-1.4-1.6-.1-1.7-1.6-1.6-1.6-1.6.2.4-.6 1-.6 1-.3-.9-1.5-.6-1.5-.6-.5.6-.1 2.3-.1 2.3-.6-.7-1.5.7-1.5.7.9-.4 1.1.7.6 1.6-.5.9.6 2.4.6 2.4-.6 0-1.8 1.1-1.8 1.1l-.3 2.1c-2.8 2 1.3 4.3 1.3 4.3-1.3.9.6 3.6.6 3.6-1.1.6-.1 2.4-.1 2.4-.6.3.5 2 .5 2-1.5 1 1.4 5.7 1.4 5.7-1.8.6.4 5 .4 5-.8 1 .3 2.3.3 2.3-1.4 9.1-.5 14.4-.1 16 .4 1.6.4 6.7.4 6.7-1.8 1.4-4.4 7-4.4 7-1.8 4.1.5 8.7 1.4 9.1.9.4 0 1 0 1s-.4 1-.3 1.7c.1.7.1 1-.5 2.3-.6 1.3.3 1.9.4 3.1.1 1.3 1.9 1.7 2.4 2.9.5 1.1-.6.7-1 1.6-.4.9.6 1.9.4 2.4-.2.6-.1.4.4.6.5.1.3.6-.3 1.4-.5.9-1 1.3-1.5 2.1-.5.9.9 1 1.3 1.4.4.4 0 0 0 .7s.9 1.9 1.3 2.3c.4.4.8 0 1 .7.3.7 1.5 5.8 1.5 5.8-1.6 1.7-4.7 12.7-4.7 12.7-.5 4.3 5.2 3.3 5.2 3.3-.9 1-.3 4.3-.3 4.3-1.8 1.7-2.6 6.8-2.6 6.8-.6 1.9 1.4 3.7 1.4 3.7-.9 1.7.3 8.3.5 10.3s.6 6.4.2 8.4c-.4 2-1.5 4.8-1.5 4.8-1.5 2.4.4 3.1.4 3.1-4 9.1-3.3 21.2-3.4 21.7-.1.4-.3 1.1-.3 1.1l-.4 2.3c-1.5 2.9 0 4.3 0 4.3-.8.3-.6 4-.6 4l-1.5 3.4-3.8-.1-8.2 17.7v2h-32.7v-10.6h-1.2v-17.1h-2.4v-14.5h-4.1v-6.5l-2-2.9c-.4-3.3-3.3-3.3-3.3-3.3-2.2.6-2.8 3.3-2.8 3.3l-1.8 2.6v7.3H712v23.4h-21.4v-27.6l-2.1-11.2v-46.6l-3.7 6.9-3.5 1.4V135h-.4v-7.1h-.5v7.2l-1.8 35.4-9.4 4.4-6.7-1.4v44.3l-2 13.4v32.7l-.4.4h-21.5v3h-.8v6.7h-2.1v-40h-4.2v42.1h-3.8v-20.6h-3.2v-13.6c-.1-1.3-1.5-1.3-1.5-1.3v-4.8h-1.6v-5.2h.8v-2.5h-2.5v-56.5h1V170h-2.4v-15.4h-1.1v-1.1h-.7v-3.2h-.3v-.8h-.4v-3.8h-.5v-.7h-.3v-3.5c0-.9-1.2-.9-1.2-.9v-3.8h-.7v-1.3h-.3v-3.3h-.4v-1.1h-.4v-4.4h-.4v-5.3h-.4v-10.7h-.6v-4.4h-.4v4.4h-.3v10.7h-.4v5.3h-.4v4.4h-.4v1.2h-.4v3.3h-.4v1.1h-.8v3.9c-1 0-1.3.7-1.3.7v3.7h-.4v.5h-.4v3.9h-.3v.8h-.4v3h-.8v1.3h-1.3V170h-2.8v1.1h1.1v56.6h-2.3v2.5h.9v5h-1.7v4.8c-1.4.1-1.5 1.1-1.5 1.1v14h-3.3v20.5h-28.2v-22.1h-5.3v23.1h-9.5v-8.4h-8.4v14.7H456v11.7c-66.4 0-455.8-.1-455.8-.1L-.2 360H1600v-65.3s-340.3-.4-485.2-.4zm-320.1-186c.1 1.3.6 3.3.6 3.3s0 .9-.4.7c-.4-.1-.8-1.6-.9-2.4 0-.7.6-1.2.7-1.6zm-.5-1.2l.6.2c-.1.2-.1.4-.1.8 0-.1-.1-.1-.1-.2-.3-.3-.4-.5-.4-.8zm12.7 14.9c-.3 2.7 1.4 2.9 1.4 2.9l.6 2.6c-.9-.2-1.6-.2-1.6-.2-.8-1.2-.4-5.3-.4-5.3zm-11.2-18.6c-.6.4-.8 2.4-.8 2.4l-.9-.4c-.3-.8-.9-1.8-1.2-2.5-.1-.2-.3-.5-.4-.8l3.3 1.3z"/></svg>