<svg xmlns="http://www.w3.org/2000/svg" viewBox="0 0 400 400"><style>.st0{fill:url(#SVGID_1_)}.st1{fill:#fff}</style><g id="Layer_1"><linearGradient id="SVGID_1_" gradientUnits="userSpaceOnUse" x1="200.273" y1="399.906" x2="200.273" y2=".453"><stop offset="0" stop-color="#005ed2"/><stop offset="1" stop-color="#0072ff"/></linearGradient><path class="st0" d="M.5 369.9c0 16.6 13.4 30 30 30H370c16.6 0 30-13.4 30-30V30.5c0-16.6-13.4-30-30-30H30.5C13.9.5.5 13.9.5 30.5v339.4z"/><path class="st1" d="M200.7 256.8c-10.5-9-20.5-18.6-30.3-28.2-9.7-9.8-19.3-19.8-28.2-30.3-7.4-8.5-8.8-20.9-5-31.2l-65.5-65.6c-15.3 15.7-13.4 54.6 3.4 88.7 7.2 14.8 16.5 28.2 26.1 40.8 9.6 12.6 20.2 24.5 31.3 35.7 11.1 11.1 23 21.8 35.5 31.4 12.7 9.6 26.1 18.9 40.8 26 34.2 16.7 73.1 18.6 88.7 3.3L232 261.7c-10.4 3.9-22.8 2.5-31.3-4.9zM151.5 148.7l21.1-21c3.8-3.9 3.8-10.1 0-13.9L122.8 64c-3.9-3.7-10-3.7-13.8.1-8.2 8.2-16.5 16.6-24.7 24.8l63.8 63.8c1-1.4 2.1-2.8 3.4-4zM285.2 226.4c-3.9-3.8-10.1-3.8-13.9 0l-10.9 11-10.2 10.1c-1.2 1.3-2.6 2.4-4 3.4l63.9 63.9c8.2-8.3 16.5-16.5 24.7-24.7 3.9-3.8 4-10 .1-13.8l-49.7-49.9z"/></g></svg>