<svg id="Layer_1" xmlns="http://www.w3.org/2000/svg" viewBox="0 0 256.8 61.5"><style>.st0{fill:#0064c3}.st1{fill:#ff6642}</style><path class="st0" d="M1.1 14.9h1.4v3.8h.1c.1-.6.4-1.1.7-1.7.4-.5.8-1 1.3-1.4.5-.4 1.1-.7 1.8-.9.6-.2 1.3-.3 2-.3.9 0 1.7.1 2.3.3.7.2 1.2.5 1.7.9s.8.8 1.1 1.3c.3.5.5 1 .5 1.4h.1c.6-1.3 1.3-2.3 2.2-3 .9-.7 2.2-1 3.7-1 .9 0 1.6.1 2.4.4.7.3 1.3.6 1.9 1.2.5.5.9 1.2 1.2 2 .3.8.4 1.8.4 2.9v12.8h-1.4V20.8c0-1.2-.2-2.1-.5-2.8-.4-.7-.8-1.2-1.3-1.6-.5-.4-1-.6-1.5-.7-.5-.1-.9-.1-1.2-.1-.9 0-1.6.1-2.4.4-.7.3-1.3.7-1.9 1.3-.5.6-.9 1.3-1.2 2.2-.3.9-.4 1.9-.4 3v11.1h-1.4V20.8c0-1.2-.2-2.1-.5-2.8-.4-.7-.8-1.2-1.2-1.6s-1-.6-1.5-.7c-.5-.1-.9-.1-1.2-.1-.7 0-1.3.1-2 .4-.7.3-1.4.7-1.9 1.2-.6.6-1.1 1.3-1.4 2.2-.4.9-.5 1.9-.5 3.1v11.1H1.1V14.9zM32.5 24.5v.2c0 1.1.1 2.1.4 3.1.3 1 .7 1.9 1.3 2.6.6.8 1.3 1.4 2.2 1.8.9.4 1.9.7 3 .7 1.9 0 3.4-.5 4.5-1.5s1.9-2.4 2.3-4.1h1.4c-.4 2.2-1.3 3.9-2.7 5-1.4 1.2-3.2 1.8-5.5 1.8-1.4 0-2.6-.3-3.6-.8s-1.9-1.2-2.6-2c-.7-.9-1.2-1.9-1.6-3.1s-.5-2.5-.5-3.8c0-1.3.2-2.6.5-3.8.4-1.2.9-2.3 1.6-3.2.7-.9 1.6-1.6 2.7-2.2 1.1-.5 2.3-.8 3.7-.8 1.3 0 2.5.2 3.5.7 1 .5 1.9 1.2 2.5 2 .7.8 1.2 1.8 1.6 2.9.4 1.1.5 2.3.5 3.6v.8H32.5zm13.8-1.3c0-1-.2-2-.5-2.9-.3-.9-.7-1.7-1.3-2.4-.6-.7-1.3-1.2-2.1-1.7-.8-.4-1.8-.6-2.8-.6-1.1 0-2.1.2-3 .6-.9.4-1.6 1-2.2 1.7-.6.7-1 1.5-1.4 2.4-.3.9-.5 1.9-.6 2.9h13.9zM67.3 29.6c-.9 1.5-1.8 2.6-3 3.3-1.2.7-2.6 1.1-4.3 1.1-1.4 0-2.6-.3-3.7-.8-1-.5-1.9-1.3-2.5-2.2-.7-.9-1.1-1.9-1.5-3.1-.3-1.2-.5-2.4-.5-3.7 0-1.4.2-2.7.5-3.9s.9-2.2 1.6-3.1c.7-.9 1.6-1.6 2.6-2.1s2.3-.8 3.7-.8c.8 0 1.5.1 2.2.3.7.2 1.4.5 2 .9.6.4 1.2.9 1.6 1.5.5.6.8 1.2 1.1 2h.1V7.6h1.4v26.1h-1.4v-4.1zm-7 3.3c1.2 0 2.2-.2 3.1-.7.9-.5 1.6-1.1 2.2-1.9.6-.8 1-1.7 1.3-2.8.3-1 .4-2.1.4-3.2s-.1-2.2-.4-3.2c-.3-1-.7-2-1.3-2.8-.6-.8-1.3-1.5-2.2-2-.9-.5-1.9-.7-3.1-.7-1.2 0-2.3.2-3.2.7-.9.5-1.6 1.1-2.2 1.9-.6.8-1 1.7-1.2 2.8-.3 1-.4 2.1-.4 3.3 0 1.1.1 2.2.4 3.2s.7 2 1.3 2.8c.6.8 1.3 1.4 2.2 1.9.9.5 1.9.7 3.1.7zM75.3 11.3V7.6h1.4v3.8h-1.4zm0 22.4V14.9h1.4v18.8h-1.4z"/><path class="st1" d="M98.4 14.9v17.8c0 1-.1 2.1-.4 3.1-.2 1-.7 1.9-1.3 2.6-.6.8-1.4 1.4-2.5 1.8-1 .5-2.4.7-4 .7-1 0-1.9-.1-2.8-.3-.9-.2-1.6-.5-2.3-1s-1.2-1-1.6-1.8c-.2-.8-.4-1.7-.5-2.8h1.4c.1.8.3 1.5.6 2.1.3.6.8 1.1 1.3 1.4.5.4 1.2.7 1.8.8.7.2 1.4.3 2.2.3 1.3 0 2.4-.2 3.2-.6.9-.4 1.6-.9 2.1-1.5s.9-1.3 1.1-2.1c.2-.8.3-1.6.3-2.4v-4.3c-.7 1.4-1.6 2.5-2.7 3.2S91.8 33 90.2 33c-1.4 0-2.6-.2-3.6-.7-1-.5-1.8-1.1-2.5-2s-1.2-1.8-1.5-2.9c-.3-1.1-.5-2.3-.5-3.7 0-1.2.2-2.4.5-3.5.4-1.1.9-2.1 1.6-2.9.7-.8 1.5-1.5 2.5-2s2.2-.8 3.5-.8c1.5 0 2.9.4 4.1 1.1 1.3.8 2.2 1.8 2.7 3.2h.1v-3.9h1.3zm-8.2.7c-1.1 0-2.1.2-3 .7-.8.5-1.5 1.1-2.1 1.8-.5.8-1 1.6-1.2 2.6-.3 1-.4 1.9-.4 2.9 0 1.1.1 2.1.4 3.1.3 1 .7 1.8 1.3 2.6.6.7 1.3 1.3 2.1 1.7.8.4 1.8.6 2.9.6 1.1 0 2.1-.2 3-.7.9-.4 1.6-1 2.1-1.8.6-.8 1-1.6 1.3-2.6.3-1 .4-2 .4-3.1 0-1-.1-2.1-.4-3-.3-1-.7-1.8-1.3-2.6-.6-.7-1.3-1.3-2.1-1.8-.8-.1-1.8-.4-3-.4zM116.9 29.9c-.3.6-.6 1.1-1 1.6s-.9.9-1.5 1.3-1.3.7-2 .9c-.8.2-1.6.3-2.5.3-2 0-3.5-.4-4.6-1.3s-1.6-2.2-1.6-4c0-1.1.2-2 .7-2.7s1-1.2 1.7-1.6c.7-.4 1.4-.7 2.2-.9.8-.2 1.6-.3 2.4-.4l2.2-.2c1-.1 1.8-.2 2.4-.3.6-.2 1-.4 1.3-.7.3-.3.5-.6.5-1.1s.1-1 .1-1.6c0-.5-.1-1-.3-1.4-.2-.4-.5-.8-.9-1.2-.4-.3-1-.6-1.6-.8-.7-.2-1.5-.3-2.4-.3-1.7 0-3 .4-4.1 1.2-1 .8-1.6 2.1-1.7 3.8h-1.4c.1-2.1.8-3.6 2-4.7 1.2-1 3-1.6 5.2-1.6s3.9.4 5 1.3c1 .9 1.6 2.1 1.6 3.5V30.7c0 .3.1.5.1.7.1.2.2.4.4.5.2.1.4.2.7.2.2 0 .6 0 1-.1v1.2c-.4.1-.7.1-1.1.1-.6 0-1-.1-1.3-.2-.3-.1-.6-.3-.7-.6-.2-.2-.3-.5-.3-.9-.1-.3-.1-.7-.1-1.1v-.6zm0-6.9c-.3.4-.9.7-1.6.8-.7.1-1.5.3-2.3.3l-2.3.2c-.7.1-1.4.2-2 .3-.7.1-1.3.4-1.8.7-.5.3-1 .7-1.3 1.3-.3.5-.5 1.3-.5 2.1 0 1.4.4 2.4 1.3 3.1.9.7 2.1 1 3.6 1 1.6 0 2.8-.3 3.8-.9.9-.6 1.6-1.2 2.1-2 .5-.7.8-1.5.9-2.2.1-.7.2-1.2.2-1.4V23zM126.2 19.2h.1c.1-.5.4-1 .7-1.5.3-.6.8-1.1 1.4-1.6.6-.5 1.2-.9 2-1.2.8-.3 1.7-.5 2.7-.5 1.4 0 2.7.3 3.7.8 1.1.5 1.9 1.3 2.6 2.2.7.9 1.2 2 1.6 3.1.3 1.2.5 2.5.5 3.8 0 1.4-.2 2.8-.5 3.9-.3 1.2-.9 2.2-1.6 3.1-.7.9-1.6 1.5-2.6 2s-2.3.7-3.8.7c-1.6 0-3-.3-4.2-1-1.2-.7-2.1-1.8-2.7-3.3h-.1v10.6h-1.4V14.9h1.4v4.3zm6.9 13.7c1.2 0 2.3-.2 3.2-.7.9-.5 1.6-1.1 2.2-1.9.6-.8 1-1.7 1.3-2.7.3-1 .4-2.1.4-3.3 0-1.1-.1-2.1-.4-3.2-.3-1-.7-2-1.2-2.8-.6-.8-1.3-1.5-2.2-2-.9-.5-2-.7-3.2-.7-1.2 0-2.3.2-3.2.7-.9.5-1.6 1.1-2.1 1.9-.6.8-.9 1.7-1.2 2.8-.2 1-.4 2.1-.4 3.2s.1 2.2.3 3.2c.2 1 .6 2 1.1 2.7.5.8 1.2 1.4 2.1 1.9.9.7 2 .9 3.3.9z"/><g><path class="st0" d="M207.2 19.7c-.4-.6-1-1.1-1.7-1.5s-1.5-.6-2.4-.6-1.7.2-2.4.6c-.7.4-1.2.9-1.7 1.5-.4.6-.7 1.4-.9 2.2-.2.8-.3 1.6-.3 2.5s.1 1.7.3 2.5c.2.8.5 1.5.9 2.2.4.6 1 1.1 1.7 1.5.7.4 1.5.6 2.4.6s1.7-.2 2.4-.6c.7-.4 1.2-.9 1.7-1.5.4-.6.7-1.4.9-2.2.2-.8.3-1.6.3-2.5s-.1-1.7-.3-2.5c-.2-.9-.5-1.6-.9-2.2zM171.2 19.7c-.4-.6-1-1.1-1.7-1.5s-1.5-.6-2.4-.6-1.7.2-2.4.6c-.7.4-1.2.9-1.7 1.5-.4.6-.7 1.4-.9 2.2-.2.8-.3 1.6-.3 2.5s.1 1.7.3 2.5c.2.8.5 1.5.9 2.2.4.6 1 1.1 1.7 1.5.7.4 1.5.6 2.4.6.3 0 .7 0 1-.1.3-.1.7-.2 1-.3l-1.8-1.6 1.5-1.7 2.1 1.9c.6-.7 1-1.4 1.2-2.3.2-.9.3-1.7.3-2.6 0-.8-.1-1.7-.3-2.5-.2-1-.5-1.7-.9-2.3z"/><path class="st0" d="M254.5 43.2V7c0-2.9-2.3-5.3-5.1-5.3h-97c-2.8 0-5.1 2.4-5.1 5.3v36.2c0 2.9 2.3 5.3 5.1 5.3h62.8l4.7 11.2 12.6-11.2h17c2.7 0 5-2.4 5-5.3zm-79.1-17.1c-.1.6-.2 1.2-.4 1.8-.2.6-.5 1.2-.8 1.7-.3.5-.7 1-1.1 1.4l2.3 2-1.5 1.7-2.6-2.2c-.7.4-1.3.6-2 .8-.7.2-1.4.2-2.1.2-1.3 0-2.5-.2-3.5-.7s-1.9-1.1-2.6-2-1.3-1.8-1.7-2.9c-.4-1.1-.6-2.3-.6-3.6 0-1.2.2-2.4.6-3.5.4-1.1.9-2.1 1.7-2.9s1.6-1.5 2.6-2 2.2-.7 3.5-.7 2.5.2 3.5.7c1 .5 1.9 1.2 2.6 2 .7.8 1.3 1.8 1.7 2.9.4 1.1.6 2.3.6 3.5-.1.6-.1 1.2-.2 1.8zm16.9.7c0 1.1-.2 2.1-.5 3s-.8 1.5-1.5 2.1c-.6.6-1.4 1-2.3 1.3-.9.3-1.9.4-3 .4s-2.1-.1-3-.4c-.9-.3-1.6-.7-2.3-1.3-.6-.6-1.1-1.3-1.5-2.1s-.5-1.8-.5-3V15.5h3.1v10.3c0 .6 0 1.2.1 1.8.1.6.2 1.2.5 1.6.3.5.7.9 1.2 1.2.6.3 1.3.5 2.3.5s1.8-.2 2.3-.5c.5-.3 1-.7 1.2-1.2.3-.5.4-1 .5-1.6.1-.6.1-1.2.1-1.8V15.5h3.1v11.3zm18.7 1.1c-.4 1.1-.9 2.1-1.7 2.9-.7.8-1.6 1.5-2.6 2s-2.2.7-3.5.7-2.5-.2-3.5-.7-1.9-1.1-2.6-2-1.3-1.8-1.7-2.9c-.4-1.1-.6-2.3-.6-3.6 0-1.2.2-2.4.6-3.5.4-1.1.9-2.1 1.7-2.9s1.6-1.5 2.6-2 2.2-.7 3.5-.7 2.5.2 3.5.7c1 .5 1.9 1.2 2.6 2 .7.8 1.3 1.8 1.7 2.9.4 1.1.6 2.3.6 3.5-.1 1.3-.2 2.5-.6 3.6zm15.7-9.7h-5.6v14.9H218V18.2h-5.6v-2.7h14.2v2.7zm14.6 14.9h-12.8V15.5h12.7v2.7h-9.6v4.6h8.9v2.5h-8.9v5.2h9.8v2.6z"/></g></svg>