<svg xmlns="http://www.w3.org/2000/svg" width="16.877" height="16.877" viewBox="0 0 16.877 16.877"><path d="M5.301 5.587L1.404 1.688 2.913.177A.598.598 0 0 1 3.756.17l3.036 3.039a.6.6 0 0 1-.003.848l-.665.664-.619.619a1.705 1.705 0 0 0-.204.247zm3.206 6.351a34.186 34.186 0 0 1-1.844-1.725 34.655 34.655 0 0 1-1.724-1.848c-.45-.52-.538-1.273-.303-1.907l-4-4.001c-.931.957-.812 3.33.208 5.415.438.902 1.006 1.716 1.593 2.49a22.316 22.316 0 0 0 1.906 2.176 21.258 21.258 0 0 0 2.171 1.913c.774.589 1.59 1.153 2.486 1.59 2.088 1.019 4.462 1.131 5.418.199l-4.001-4.001c-.634.235-1.388.148-1.91-.301zm8.195 1.181l-3.036-3.037a.605.605 0 0 0-.848.003h-.002l-.667.666-.615.618a1.866 1.866 0 0 1-.247.205l3.896 3.898c.504-.505 1.007-1.007 1.512-1.51a.594.594 0 0 0 .007-.843z"/></svg>