<svg xmlns="http://www.w3.org/2000/svg" width="31.161" height="31.161" viewBox="0 0 31.161 31.161"><path d="M12.024 7.431c-1.267.08-2.385.229-3.357.451-.969.222-1.652.543-2.051.969.063.266.096.709.096 1.328v.61H0C.244 8.841.752 7.355 1.523 6.33c.731-.956 1.736-1.584 3.008-1.885a73.339 73.339 0 0 1 2.604-.584 29.544 29.544 0 0 1 3.365-.412c1.188-.08 2.889-.12 5.1-.12 3.251 0 5.537.066 6.846.2 1.313.133 2.674.42 4.088.862 1.414.443 2.461 1.116 3.146 2.018.746.992 1.239 2.453 1.481 4.38h-6.61v-.318c0-.743.022-1.282.075-1.62-.41-.442-1.116-.773-2.123-.995a20.89 20.89 0 0 0-3.198-.438 60.209 60.209 0 0 0-3.703-.106 55.323 55.323 0 0 0-3.578.119zm-5.313 3.861v1.143c0 .548-.271.823-.811.823H.672c-.141 0-.286-.089-.442-.266-.154-.178-.23-.364-.23-.557v-1.143h6.711zM2.604 26.213v-5.361c0-.584.076-1.078.229-1.475.156-.398.412-.828.771-1.289l5.806-7.884V8.532h2.506l.117 1.673h6.98V8.532h2.834v1.805l5.996 7.752c.45.551.729.982.838 1.303.11.316.166.806.166 1.461v5.361c0 1.08-.438 1.619-1.313 1.619H3.797c-.795 0-1.193-.54-1.193-1.62zm17.481-8.867c1.252-.602 1.879-1.326 1.879-2.177 0-.833-.629-1.544-1.889-2.137-1.261-.593-2.752-.889-4.475-.889-1.748 0-3.252.301-4.513.902-1.26.602-1.891 1.311-1.891 2.124 0 .851.627 1.576 1.881 2.177 1.252.604 2.762.902 4.521.902 1.739.001 3.233-.3 4.487-.902zm11.076-4.911a.953.953 0 0 1-.183.57c-.123.168-.254.253-.396.253H25.24c-.166 0-.324-.076-.472-.226a.819.819 0 0 1-.225-.597v-1.144h6.613v1.143l.005.001z"/></svg>