<?xml version="1.0" encoding="utf-8"?>
<!-- Generator: Adobe Illustrator 19.2.0, SVG Export Plug-In . SVG Version: 6.00 Build 0)  -->
<svg version="1.1" xmlns="http://www.w3.org/2000/svg" xmlns:xlink="http://www.w3.org/1999/xlink" x="0px" y="0px"
	 viewBox="0 0 353.3 133.7" style="enable-background:new 0 0 353.3 133.7;" xml:space="preserve">
<style type="text/css">
	.st0{fill:#E0162B;}
	.st1{fill:#0E0751;}
	.st2{fill:#37383B;}
</style>
<g id="Layer_1">
	<g>
		<polygon class="st0" points="116.7,104.9 114.9,99.8 113,104.9 107.3,105.1 111.8,108.4 110.2,113.5 114.9,110.5 119.5,113.5 
			117.9,108.4 122.4,105.1 		"/>
		<polygon class="st0" points="135.5,104.9 133.6,99.8 131.7,104.9 126.1,105.1 130.6,108.4 129,113.5 133.6,110.5 138.3,113.5 
			136.7,108.4 141.1,105.1 		"/>
		<rect x="19" y="108" class="st1" width="84" height="2"/>
		<polygon class="st1" points="26,68 43,68 43,84 49,84 49,48 43,48 43,63 26,63 26,48 20,48 20,84 26,84 		"/>
		<polygon class="st1" points="79,53 79,48 58,48 58,84 79,84 79,79 64,79 64,68 78,68 78,63 64,63 64,53 		"/>
		<path class="st1" d="M115.9,84l-13.7-36h-6.5L82,84h6.3l3.6-10h14l3.7,10H115.9z M93.6,69l3.3-9.5c0.9-2.4,1.5-4.7,2-6.7
			c0.2,0.7,0.5,1.7,0.9,3.2c0.4,1.4,0.8,2.5,1,3.2l3.4,10H93.6z"/>
		<polygon class="st1" points="127,48 121,48 121,84 142,84 142,79 127,79 		"/>
		<polygon class="st1" points="155,84 161,84 161,53 172,53 172,48 144,48 144,53 155,53 		"/>
		<polygon class="st1" points="206,84 206,48 200,48 200,63 183,63 183,48 178,48 178,84 183,84 183,68 200,68 200,84 		"/>
		<path class="st1" d="M231.6,52.3c1.5,0,3,0.2,4.3,0.7c1.4,0.4,2.7,1,3.9,1.5l2.2-5c-3.2-1.6-6.6-2.4-10.4-2.4
			c-3.6,0-6.7,0.8-9.3,2.3c-2.6,1.5-4.7,3.7-6,6.6c-1.4,2.9-2.1,6.2-2.1,10c0,6,1.4,10.7,4.3,13.9s7.2,4.9,12.5,4.9
			c3.6,0,7-0.5,10-1.6V78c-2,0.5-3.3,0.9-4.7,1.2c-1.5,0.3-3,0.5-4.6,0.5c-3.6,0-6.4-1.2-8.3-3.5c-1.9-2.3-2.9-5.7-2.9-10.2
			c0-4.3,1-7.7,2.9-10.1C225.5,53.5,228.1,52.3,231.6,52.3z"/>
		<path class="st1" d="M253.6,74h14l3.7,10h6.4l-13.7-36h-6.5l-13.7,36h6.3L253.6,74z M258.6,59.5c0.9-2.4,1.5-4.7,2-6.7
			c0.2,0.7,0.5,1.7,0.9,3.2c0.4,1.4,0.8,2.5,1,3.2l3.4,10h-10.7L258.6,59.5z"/>
		<path class="st1" d="M306.6,58.4c0-3.6-1.1-6.1-3.4-7.9c-2.3-1.8-5.8-2.5-10.5-2.5H282v36h6V70h6.3l8.8,14h6.8l-10.3-16
			C304.3,66,306.6,62.9,306.6,58.4z M298.6,63.3c-1.3,1-3.3,1.7-6.1,1.7H288V53h4.3c2.7,0,4.8,0.3,6.1,1.2c1.4,0.9,2,2.4,2,4.5
			C300.5,60.7,299.8,62.3,298.6,63.3z"/>
		<polygon class="st1" points="336,53 336,48 315,48 315,84 336,84 336,79 321,79 321,68 335,68 335,63 321,63 321,53 		"/>
		<rect x="145" y="26" class="st1" width="189" height="2"/>
		<polygon class="st0" points="110.2,32.2 114.9,29.1 119.5,32.2 117.9,27 122.4,23.7 116.7,23.5 114.9,18.4 113,23.5 107.3,23.7 
			111.8,27 		"/>
		<polygon class="st0" points="129,32.2 133.6,29.1 138.3,32.2 136.7,27 141.1,23.7 135.5,23.5 133.6,18.4 131.7,23.5 126.1,23.7 
			130.6,27 		"/>
		<path class="st2" d="M26,33.3c-2,0-2-0.4-2-1.1V18.6L29.6,34h2.3L38,18.6v13.6c0,0.7-1,1.1-2,1.1V34h7v-0.7c-2,0-3-0.4-3-1.1V18.4
			c0-0.7,1-1.1,3-1.1V16h-5.8l-5.9,15.5L25.5,16H20v1.3c1,0,2,0.4,2,1.1v13.9c0,0.7-1,1.1-2,1.1V34h6V33.3z"/>
		<path class="st2" d="M50,33h-1.1c-0.7,0-1.1,0-1.1-0.5c0,0,0,0,0,0c0,0,0-0.3,0-0.3L49,29h8.2l1.3,3.4c0,0,0,0.2,0,0.2
			s0,0.1,0,0.1c0,0,0-0.1,0-0.1c0,0.3-0.2,0.3-0.7,0.3H56v1h7v-0.7c-1,0-1.6-0.5-1.8-0.9L55,16h-2.1l-6.7,16.4
			C46,32.9,45,33.3,44,33.3V34h6V33z M53.1,18.9l3.6,9.1h-7.1L53.1,18.9z"/>
		<path class="st2" d="M72,33.3c-2,0-2-0.4-2-1.1v-4.5l3.8-3.6l5.1,7.9c0.2,0.3,0.2,0.5,0.2,0.7c0,0.1-0.1,0.1-0.1,0.2
			c-0.1,0.1-0.3,0-0.5,0H76v1h9v-1h-0.9c-0.6,0-1.1,0.1-1.4-0.1s-0.7-0.4-1-0.8l-6.3-9.5l4.7-4.2c0.4-0.3,0.8-0.6,1.2-0.8
			c0.4-0.2,0.6-0.3,1.6-0.3V16h-7v1h1.2c0.4,0,0.6,0.2,0.8,0.3c0.2,0.1,0.3,0.4,0.3,0.6c0,0.3,0,0.6-0.2,0.8L70,26v-7.7
			c0-0.7,0-1.1,2-1.1V16h-7v1.3c1,0,2,0.4,2,1.1v13.9c0,0.7-1,1.1-2,1.1V34h7V33.3z"/>
		<path class="st2" d="M102.2,27.3l-1-0.1c-0.4,3.8-2,5.8-4.9,5.8H91v-8h3.5c1.1,0,1.7,2,1.8,4h0.9l0.4-8h-0.9c-0.1,2-0.8,3-2,3H91
			v-6h6.2c2,0,3.4,1.3,3.6,4l1.1-0.2V16H86v1.3c2,0,3,0.4,3,1.1v13.9c0,0.7-1,1.1-3,1.1V34h15.7L102.2,27.3z"/>
		<path class="st2" d="M158,107.3c1,0,2,0.4,2,1.1v1.3c0,0.5-0.1,1-0.4,1.5s-0.6,0.9-1.1,1.2c-0.5,0.4-1,0.7-1.7,0.9
			c-0.6,0.2-1.3,0.3-2.1,0.3c-1,0-2-0.2-2.8-0.5c-0.9-0.3-1.6-0.8-2.2-1.4s-1.1-1.4-1.4-2.4c-0.3-0.9-0.5-2.1-0.5-3.3
			c0-1.1,0.1-2.1,0.4-3.1s0.7-1.8,1.2-2.6c0.6-0.7,1.3-1.3,2.2-1.7c0.9-0.4,1.9-0.6,3.1-0.6c0.8,0,1.6,0.1,2.2,0.4
			c0.7,0.2,1.3,0.6,1.8,1c0.5,0.4,1,1,1.4,1.6c0.4,0.6,0.6,1.3,0.9,2l1-0.1V97h-1.1l-0.7,1.8c-0.2-0.3-0.5-0.5-0.8-0.8
			c-0.4-0.3-0.8-0.5-1.2-0.7c-0.5-0.2-1-0.4-1.6-0.5c-0.6-0.1-1.2-0.2-1.9-0.2c-1.4,0-2.6,0.2-3.8,0.6s-2.2,1-3,1.7
			c-0.9,0.8-1.5,1.8-2,2.9c-0.5,1.2-0.7,2.6-0.7,4.2c0,1.5,0.2,2.9,0.7,4c0.5,1.1,1.1,2.1,2,2.8c0.8,0.8,1.8,1.3,2.9,1.7
			c1.1,0.4,2.2,0.6,3.5,0.6c0.7,0,1.4-0.1,1.9-0.2c0.6-0.1,1.1-0.3,1.6-0.5c0.5-0.2,0.9-0.5,1.3-0.8s0.7-0.5,1-0.8l0.6,2.2h2.3v-6.6
			c0-0.7,0-1.1,2-1.1V107h-7V107.3z"/>
		<path class="st2" d="M182,112.9c0,0.4,0.1,0.6-0.1,0.8c-0.1,0.2-0.3,0.3-0.5,0.3c-0.2,0-0.2-0.1-0.4-0.3c-0.1-0.2,0-0.4,0-0.8
			v-2.5c0-0.8-0.2-1.4-0.3-1.9c-0.1-0.5-0.4-1-0.6-1.4c-0.2-0.4-0.5-0.7-0.9-0.9c-0.3-0.2-0.7-0.4-1.1-0.6c0.4-0.1,0.8-0.2,1.2-0.5
			c0.4-0.2,0.7-0.5,1.1-0.8c0.3-0.3,0.6-0.7,0.8-1.2c0.2-0.5,0.3-1,0.3-1.6c0-1-0.2-1.7-0.5-2.3c-0.4-0.6-0.8-1-1.4-1.4
			c-0.6-0.3-1.2-0.5-2-0.6S176,97,175.2,97H166v0.9c1,0,2,0.4,2,1.1v13.9c0,0.7-1,1.1-2,1.1v1h7v-1.1c-1,0-2-0.4-2-1.1V106h4.2
			c1.1,0,1.8,0.4,2.3,1.2c0.5,0.8,0.5,1.9,0.5,3.3v2.1c0,0.4,0.2,0.7,0.3,1s0.3,0.5,0.5,0.8s0.5,0.4,0.8,0.5
			c0.3,0.1,0.8,0.2,1.3,0.2c0.9,0,1.4-0.2,1.7-0.6c0.3-0.4,0.4-1,0.4-1.6V112h-1V112.9z M175.5,105H171v-7h4.5c1.1,0,1.9,0.5,2.5,1
			c0.6,0.5,0.9,1.5,0.9,2.6c0,1.1-0.3,2-0.9,2.5C177.3,104.6,176.5,105,175.5,105z"/>
		<path class="st2" d="M194.6,113H189v-7h3.8c1.1,0,1.7,1,1.8,3h0.9l0.4-7h-0.9c-0.1,2-0.8,3-2,3H189v-7h6.5c2,0,3.2,1.6,3.5,4.3
			l1,0.1V97h-15v0.9c1,0,2,0.4,2,1.1v13.9c0,0.7-1,1.1-2,1.1v1.1h14.9l0.6-6.9l-1-0.5C199.1,111.4,197.5,113,194.6,113z"/>
		<path class="st2" d="M219.8,113.2L213.2,97h-2.1l-6.8,16.2c-0.2,0.4-0.3,0.7-2.3,0.7v1.1h7v-1h-2c-0.7,0-1.1-0.2-1.1-0.7
			c0,0,0-0.1,0-0.1c0,0,0-0.1,0-0.2l1.2-3h8.2l1.3,3.2c0,0,0,0.1,0,0.1c0,0,0,0.1,0,0.1s0,0.1,0,0.1c0,0.3-0.2,0.5-0.7,0.5H214v1h8
			v-1.1C220,113.9,220,113.7,219.8,113.2z M207.8,109l3.5-9.1l3.6,9.1H207.8z"/>
		<path class="st2" d="M220,104.3l0.9,0.1c0.1-1.2,0.2-2.3,0.4-3c0.2-0.8,0.4-1.4,0.7-1.9c0.3-0.4,0.7-0.9,1.1-1.1
			c0.5-0.2,1-0.4,1.6-0.4h3.2v14.8c0,0.7-1,1.1-3,1.1v1.1h7v-1.1c-1,0-2-0.4-2-1.1V98h2.7c0.6,0,1.2,0.3,1.6,0.4
			c0.5,0.2,0.8,0.6,1.2,1c0.3,0.4,0.6,1.1,0.8,1.9c0.2,0.8,0.5,1.8,0.6,3.1l1.2-0.1V97h-18V104.3z"/>
		<path class="st2" d="M264.8,113.2L258.1,97H256l-6.8,16.2c-0.2,0.4-0.3,0.7-2.3,0.7v1.1h7v-1h-2c-0.7,0-1.1-0.2-1.1-0.7
			c0,0,0-0.1,0-0.1c0,0,0-0.1,0-0.2l1.2-3h8.2l1.3,3.2c0,0,0,0.1,0,0.1c0,0,0,0.1,0,0.1s0,0.1,0,0.1c0,0.3-0.2,0.5-0.7,0.5h-2v1h8
			v-1.1C265,113.9,265,113.7,264.8,113.2z M252.7,109l3.5-9.1l3.6,9.1H252.7z"/>
		<path class="st2" d="M280,107.3c1,0,2,0.4,2,1.1v1.3c0,0.5-0.2,1-0.5,1.5c-0.3,0.5-0.7,0.9-1.2,1.2c-0.5,0.4-1.1,0.7-1.7,0.9
			c-0.6,0.2-1.3,0.3-2.1,0.3c-1,0-2-0.2-2.8-0.5s-1.6-0.8-2.2-1.4s-1.1-1.4-1.4-2.4s-0.5-2.1-0.5-3.3c0-1.1,0.1-2.1,0.4-3.1
			c0.3-1,0.7-1.8,1.2-2.6c0.6-0.7,1.3-1.3,2.2-1.7c0.9-0.4,1.9-0.6,3.1-0.6c0.8,0,1.6,0.1,2.2,0.4c0.7,0.2,1.3,0.6,1.8,1
			c0.5,0.4,1,1,1.4,1.6c0.4,0.6,0.8,1.3,1,2l1.2-0.1V97h-1.4l-0.7,1.8c-0.2-0.3-0.5-0.5-0.8-0.8c-0.4-0.3-0.8-0.5-1.2-0.7
			s-1-0.4-1.6-0.5c-0.6-0.1-1.2-0.2-1.9-0.2c-1.4,0-2.6,0.2-3.8,0.6c-1.2,0.4-2.2,1-3,1.7c-0.9,0.8-1.5,1.8-2,2.9s-0.7,2.6-0.7,4.2
			c0,1.5,0.2,2.9,0.7,4c0.5,1.1,1.1,2.1,2,2.8c0.8,0.8,1.8,1.3,2.9,1.7c1.1,0.4,2.2,0.6,3.5,0.6c0.7,0,1.4-0.1,1.9-0.2
			c0.6-0.1,1.1-0.3,1.6-0.5c0.5-0.2,0.9-0.5,1.3-0.8s0.7-0.5,1-0.8l0.6,2.2h1.6v-6.6c0-0.7,1-1.1,2-1.1V107h-6V107.3z"/>
		<path class="st2" d="M305,113.2L298.6,97h-2.1l-6.5,16.2c-0.2,0.4-1,0.7-2,0.7v1.1h6v-1h-1.5c-0.7,0-1.1-0.2-1.1-0.7
			c0,0,0-0.1,0-0.1c0,0,0-0.1,0-0.2l1.2-3h8.2l1.3,3.2c0,0,0,0.1,0,0.1c0,0,0,0.1,0,0.1s0,0.1,0,0.1c0,0.3-0.2,0.5-0.7,0.5H299v1h8
			v-1.1C306,113.9,305.2,113.7,305,113.2z M293.2,109l3.5-9.1l3.6,9.1H293.2z"/>
		<path class="st2" d="M309,97.9c1,0,2,0.4,2,1.1v13.9c0,0.7-1,1.1-2,1.1v1.1h7v-1.1c-2,0-2-0.4-2-1.1V99c0-0.7,0-1.1,2-1.1V97h-7
			V97.9z"/>
		<path class="st2" d="M331,97v0.9c2,0,2,0.4,2,1.1v13.7L322.6,97H318v0.9c1,0,2,0.4,2,1.1v13.9c0,0.7-1,1.1-2,1.1v1.1h5v-1.1
			c-1,0-2-0.4-2-1.1V99.5l10.7,15.5h3.3V99c0-0.7,0-1.1,2-1.1V97H331z"/>
	</g>
</g>
<g id="Layer_2">
</g>
</svg>
