<?xml version="1.0" encoding="utf-8"?>
<!-- Generator: Adobe Illustrator 20.1.0, SVG Export Plug-In . SVG Version: 6.00 Build 0)  -->
<svg version="1.1" xmlns="http://www.w3.org/2000/svg" xmlns:xlink="http://www.w3.org/1999/xlink" x="0px" y="0px"
	 viewBox="0 0 353.3 133.7" style="enable-background:new 0 0 353.3 133.7;" xml:space="preserve">
<style type="text/css">
	.st0{fill:#E0162B;}
	.st1{fill:#0E0751;}
	.st2{fill:#37383B;}
</style>
<g id="Layer_1">
	<polygon class="st0" points="114.9,18.4 113,23.5 107.3,23.7 111.8,27 110.2,32.2 114.9,29.1 119.5,32.2 117.9,27 122.4,23.7 
		116.7,23.5 	"/>
	<polygon class="st0" points="133.6,18.4 131.7,23.5 126.1,23.7 130.6,27 129,32.2 133.6,29.1 138.3,32.2 136.7,27 141.1,23.7 
		135.5,23.5 	"/>
	<rect x="145.2" y="26.7" class="st1" width="189" height="1.7"/>
	<rect x="18.9" y="107.8" class="st1" width="84.5" height="1.7"/>
	<polygon class="st0" points="114.9,99.8 113,104.9 107.3,105.1 111.8,108.4 110.2,113.5 114.9,110.5 119.5,113.5 117.9,108.4 
		122.4,105.1 116.7,104.9 	"/>
	<polygon class="st0" points="133.6,99.8 131.7,104.9 126.1,105.1 130.6,108.4 129,113.5 133.6,110.5 138.3,113.5 136.7,108.4 
		141.1,105.1 135.5,104.9 	"/>
	<g>
		<g>
			<path class="st1" d="M48.6,84.3h-6V67.8H25.7v16.5h-6V47.7h6v15h16.9v-15h6V84.3z"/>
			<path class="st1" d="M78.9,84.3H58.2V47.7h20.7v5.1H64.2v10H78v5H64.2v11.5h14.7V84.3z"/>
			<path class="st1" d="M109.5,84.3l-3.7-10.2h-14l-3.6,10.2H82l13.7-36.7h6.5l13.7,36.7H109.5z M104.3,69l-3.4-10
				c-0.2-0.7-0.6-1.7-1-3.2c-0.4-1.4-0.7-2.5-0.9-3.2c-0.5,2.1-1.1,4.3-2,6.7L93.6,69H104.3z"/>
			<path class="st1" d="M120.7,84.3V47.7h6v31.5h15.5v5.1H120.7z"/>
			<path class="st1" d="M161.1,84.3h-6V52.8h-10.8v-5.1h27.5v5.1h-10.8V84.3z"/>
			<path class="st1" d="M206.4,84.3h-6V67.8h-16.9v16.5h-6V47.7h6v15h16.9v-15h6V84.3z"/>
			<path class="st1" d="M231.6,52.3c-3.4,0-6.1,1.2-8.1,3.7c-2,2.4-3,5.8-3,10.1c0,4.5,0.9,7.9,2.8,10.2c1.9,2.3,4.6,3.5,8.2,3.5
				c1.6,0,3.1-0.2,4.5-0.5c1.5-0.3,3-0.7,4.5-1.2v5.1c-2.9,1.1-6.1,1.6-9.8,1.6c-5.4,0-9.5-1.6-12.3-4.9s-4.3-7.9-4.3-13.9
				c0-3.8,0.7-7.1,2.1-10c1.4-2.9,3.4-5,6-6.6c2.6-1.5,5.7-2.3,9.3-2.3c3.7,0,7.2,0.8,10.4,2.4l-2.2,5c-1.2-0.6-2.5-1.1-3.9-1.5
				C234.5,52.5,233.1,52.3,231.6,52.3z"/>
			<path class="st1" d="M271.2,84.3l-3.7-10.2h-14L250,84.3h-6.3l13.7-36.7h6.5l13.7,36.7H271.2z M266,69l-3.4-10
				c-0.2-0.7-0.6-1.7-1-3.2c-0.4-1.4-0.7-2.5-0.9-3.2c-0.5,2.1-1.1,4.3-2,6.7l-3.3,9.5H266z"/>
			<path class="st1" d="M288.4,69.7v14.6h-6V47.7h10.3c4.7,0,8.2,0.9,10.5,2.7c2.3,1.8,3.4,4.4,3.4,8c0,4.6-2.4,7.8-7.1,9.7
				l10.3,16.2H303l-8.8-14.6H288.4z M288.4,64.7h4.2c2.8,0,4.8-0.5,6.1-1.6c1.3-1,1.9-2.6,1.9-4.6c0-2.1-0.7-3.6-2-4.5
				c-1.4-0.9-3.4-1.4-6.1-1.4h-4V64.7z"/>
			<path class="st1" d="M335.9,84.3h-20.7V47.7h20.7v5.1h-14.7v10h13.8v5h-13.8v11.5h14.7V84.3z"/>
		</g>
	</g>
	<g>
		<path class="st2" d="M42.5,18.1c-1.4,0-2.2,0.4-2.2,1.1v13.9c0,0.7,0.7,1.1,2.2,1.1v0.8h-6.7v-0.8c1.4,0,2.1-0.4,2.1-1.1V19.5
			l-6,15.6h-2.3l-6-15.6v13.6c0,0.7,0.7,1.1,2.1,1.1v0.8H20v-0.8c1.4,0,2.1-0.4,2.1-1.1V19.2c0-0.7-0.7-1.1-2.1-1.1v-0.8h5.5
			l5.9,15.5l5.9-15.5h5.3V18.1z"/>
		<path class="st2" d="M61.4,33.5c0.2,0.5,0.9,0.7,2,0.7v0.8h-7.9v-0.8h2.4c0.4,0,0.7-0.2,0.7-0.5c0,0,0,0,0,0c0,0,0-0.1,0-0.1
			s0-0.1,0-0.1l-1.3-3.2H49l-1.2,3c0,0.1,0,0.1,0,0.2c0,0,0,0.1,0,0.1c0,0.4,0.4,0.6,1.1,0.6h1.6v0.8h-6.3v-0.9
			c1.2,0,1.9-0.2,2.1-0.7l6.6-16.2H55L61.4,33.5z M49.6,28.8h7.1l-3.6-9.1L49.6,28.8z"/>
		<path class="st2" d="M82.9,18.1c-0.6,0-1.1,0.1-1.5,0.3c-0.4,0.2-0.8,0.5-1.2,0.8l-4.7,4.2l6.3,9.5c0.3,0.4,0.6,0.7,1,0.9
			s0.9,0.3,1.4,0.3h0.8v0.8h-8.8v-0.8h2.4c0.3,0,0.4,0,0.5-0.1c0.1-0.1,0.1-0.2,0.1-0.3c0-0.2-0.1-0.5-0.3-0.7l-5.2-7.9l-4,3.6v4.5
			c0,0.7,0.7,1.1,2.1,1.1v0.8h-6.7v-0.8c1.4,0,2.1-0.4,2.1-1.1V19.2c0-0.7-0.7-1.1-2.1-1.1v-0.8h6.7v0.8c-1.4,0-2.1,0.4-2.1,1.1v7.7
			l8.2-7.3c0.3-0.2,0.4-0.5,0.4-0.8c0-0.2-0.1-0.4-0.3-0.5c-0.2-0.1-0.5-0.2-0.8-0.2h-1.5v-0.8h7.1V18.1z"/>
		<path class="st2" d="M101.7,22.7l-1,0.1c-0.3-2.8-1.4-4.2-3.5-4.2H91v6.5h3.6c1.2,0,1.8-1,2-3.1h0.9l-0.4,7.5h-0.9
			c-0.2-2.1-0.8-3.2-1.8-3.2H91v7.4h5.4c2.9,0,4.5-1.9,4.9-5.7l1,0.2l-0.6,6.8H86.5v-0.8c1.4,0,2.1-0.4,2.1-1.1V19.2
			c0-0.7-0.7-1.1-2.1-1.1v-0.8h15.2V22.7z"/>
	</g>
	<g>
		<path class="st2" d="M162,102.9L161,103c-0.2-0.7-0.5-1.4-0.9-2c-0.4-0.6-0.8-1.1-1.4-1.6c-0.5-0.4-1.1-0.8-1.8-1
			c-0.7-0.2-1.4-0.4-2.2-0.4c-1.2,0-2.2,0.2-3.1,0.6c-0.9,0.4-1.6,1-2.2,1.7c-0.6,0.7-1,1.6-1.2,2.6s-0.4,2-0.4,3.1
			c0,1.3,0.2,2.4,0.5,3.3c0.3,0.9,0.8,1.7,1.4,2.4s1.3,1.1,2.2,1.4c0.9,0.3,1.8,0.5,2.8,0.5c0.7,0,1.4-0.1,2.1-0.3
			c0.6-0.2,1.2-0.5,1.7-0.9c0.5-0.4,0.9-0.8,1.1-1.2s0.4-1,0.4-1.5v-1.3c0-0.7-0.7-1.1-2.2-1.1v-0.8h6.8v0.8c-1.4,0-2.2,0.4-2.2,1.1
			v6.4h-1.9l-0.6-2.1c-0.3,0.3-0.6,0.6-1,0.9s-0.8,0.6-1.3,0.8c-0.5,0.2-1,0.4-1.6,0.5c-0.6,0.1-1.2,0.2-1.9,0.2
			c-1.2,0-2.4-0.2-3.5-0.6c-1.1-0.4-2-0.9-2.9-1.7c-0.8-0.7-1.5-1.7-2-2.8c-0.5-1.1-0.7-2.5-0.7-4c0-1.6,0.2-3,0.7-4.2
			c0.5-1.2,1.2-2.2,2-2.9c0.9-0.8,1.9-1.4,3-1.7s2.4-0.6,3.8-0.6c0.7,0,1.3,0.1,1.9,0.2c0.6,0.1,1.1,0.3,1.6,0.5
			c0.5,0.2,0.9,0.4,1.2,0.7c0.4,0.3,0.6,0.5,0.8,0.8l0.7-1.8h1.2V102.9z"/>
		<path class="st2" d="M183.3,112.7c0,0.7-0.2,1.2-0.5,1.6c-0.3,0.4-1,0.6-1.9,0.6c-0.5,0-0.9-0.1-1.2-0.2c-0.3-0.1-0.6-0.3-0.8-0.5
			s-0.4-0.5-0.5-0.8s-0.1-0.6-0.1-1v-2.1c0-1.4-0.2-2.6-0.7-3.3c-0.5-0.8-1.3-1.1-2.4-1.1h-4.5v6.8c0,0.7,0.9,1.1,2.7,1.1v0.8h-7.2
			V114c1.4,0,2.1-0.4,2.1-1.1V99c0-0.7-0.7-1.1-2.1-1.1V97h9.1c0.8,0,1.5,0.1,2.3,0.2s1.4,0.3,2,0.6c0.6,0.3,1,0.8,1.4,1.4
			c0.4,0.6,0.5,1.4,0.5,2.3c0,0.6-0.1,1.2-0.3,1.6c-0.2,0.5-0.4,0.9-0.8,1.2c-0.3,0.3-0.7,0.6-1.1,0.8c-0.4,0.2-0.8,0.4-1.2,0.5
			c0.4,0.2,0.8,0.4,1.1,0.6c0.3,0.2,0.6,0.6,0.8,0.9c0.2,0.4,0.4,0.8,0.5,1.4c0.1,0.5,0.2,1.2,0.2,1.9v2.5c0,0.4,0.1,0.6,0.2,0.8
			c0.1,0.2,0.3,0.3,0.5,0.3c0.2,0,0.4-0.1,0.6-0.3c0.1-0.2,0.2-0.4,0.2-0.8v-1.1h1V112.7z M170.7,98.5v6.4h4.8c1,0,1.8-0.2,2.4-0.7
			c0.6-0.5,0.9-1.3,0.9-2.4c0-1.1-0.3-1.9-0.9-2.5c-0.6-0.5-1.4-0.8-2.5-0.8H170.7z"/>
		<path class="st2" d="M199.9,102.4l-1,0.1c-0.3-2.8-1.4-4.2-3.5-4.2h-6.2v6.5h3.6c1.2,0,1.8-1,2-3.1h0.9l-0.4,7.5h-0.9
			c-0.2-2.1-0.8-3.2-1.8-3.2h-3.5v7.4h5.4c2.9,0,4.5-1.9,4.9-5.7l1,0.2l-0.6,6.8h-15.2v-0.8c1.4,0,2.1-0.4,2.1-1.1V99
			c0-0.7-0.7-1.1-2.1-1.1V97h15.2V102.4z"/>
		<path class="st2" d="M219.6,113.2c0.2,0.5,0.9,0.7,2,0.7v0.8h-7.9v-0.8h2.4c0.4,0,0.7-0.2,0.7-0.5c0,0,0,0,0,0s0-0.1,0-0.1
			c0,0,0-0.1,0-0.1l-1.3-3.2h-8.2l-1.2,3c0,0.1,0,0.1,0,0.2c0,0,0,0.1,0,0.1c0,0.4,0.3,0.6,1.1,0.6h1.6v0.8h-6.3v-0.9
			c1.2,0,1.9-0.2,2.1-0.7l6.6-16.2h2.1L219.6,113.2z M207.8,108.6h7.1l-3.6-9.1L207.8,108.6z"/>
		<path class="st2" d="M237.6,104.3l-1,0.1c-0.1-1.2-0.2-2.3-0.4-3c-0.2-0.8-0.4-1.4-0.8-1.9c-0.3-0.4-0.7-0.8-1.2-0.9
			c-0.5-0.2-1-0.3-1.6-0.3H230v14.5c0,0.7,0.7,1.1,2.2,1.1v0.8h-6.7v-0.8c1.4,0,2.1-0.4,2.1-1.1V98.3h-2.7c-0.6,0-1.2,0.1-1.6,0.3
			c-0.5,0.2-0.8,0.5-1.1,0.9c-0.3,0.4-0.6,1.1-0.7,1.9c-0.2,0.8-0.3,1.8-0.4,3l-1-0.1V97h17.6V104.3z"/>
		<path class="st2" d="M264.5,113.2c0.2,0.5,0.9,0.7,2,0.7v0.8h-7.9v-0.8h2.4c0.4,0,0.7-0.2,0.7-0.5c0,0,0,0,0,0s0-0.1,0-0.1
			c0,0,0-0.1,0-0.1l-1.3-3.2h-8.2l-1.2,3c0,0.1,0,0.1,0,0.2c0,0,0,0.1,0,0.1c0,0.4,0.3,0.6,1.1,0.6h1.6v0.8h-6.3v-0.9
			c1.2,0,1.9-0.2,2.1-0.7L256,97h2.1L264.5,113.2z M252.7,108.6h7.1l-3.6-9.1L252.7,108.6z"/>
		<path class="st2" d="M283.8,102.9l-1.1,0.1c-0.2-0.7-0.5-1.4-0.9-2c-0.4-0.6-0.8-1.1-1.4-1.6c-0.5-0.4-1.1-0.8-1.8-1
			c-0.7-0.2-1.4-0.4-2.2-0.4c-1.2,0-2.2,0.2-3.1,0.6c-0.9,0.4-1.6,1-2.2,1.7c-0.6,0.7-1,1.6-1.2,2.6c-0.3,1-0.4,2-0.4,3.1
			c0,1.3,0.2,2.4,0.5,3.3s0.8,1.7,1.4,2.4s1.3,1.1,2.2,1.4s1.8,0.5,2.8,0.5c0.7,0,1.4-0.1,2.1-0.3c0.6-0.2,1.2-0.5,1.7-0.9
			c0.5-0.4,0.9-0.8,1.1-1.2c0.3-0.5,0.4-1,0.4-1.5v-1.3c0-0.7-0.7-1.1-2.2-1.1v-0.8h6.8v0.8c-1.4,0-2.2,0.4-2.2,1.1v6.4h-1.9
			l-0.6-2.1c-0.3,0.3-0.6,0.6-1,0.9s-0.8,0.6-1.3,0.8c-0.5,0.2-1,0.4-1.6,0.5c-0.6,0.1-1.2,0.2-1.9,0.2c-1.2,0-2.4-0.2-3.5-0.6
			c-1.1-0.4-2-0.9-2.9-1.7c-0.8-0.7-1.5-1.7-2-2.8c-0.5-1.1-0.7-2.5-0.7-4c0-1.6,0.2-3,0.7-4.2s1.2-2.2,2-2.9c0.9-0.8,1.9-1.4,3-1.7
			c1.2-0.4,2.4-0.6,3.8-0.6c0.7,0,1.3,0.1,1.9,0.2c0.6,0.1,1.1,0.3,1.6,0.5s0.9,0.4,1.2,0.7c0.3,0.3,0.6,0.5,0.8,0.8l0.7-1.8h1.2
			V102.9z"/>
		<path class="st2" d="M305.1,113.2c0.2,0.5,0.9,0.7,2,0.7v0.8h-7.9v-0.8h2.4c0.4,0,0.7-0.2,0.7-0.5c0,0,0,0,0,0s0-0.1,0-0.1
			c0,0,0-0.1,0-0.1l-1.3-3.2h-8.2l-1.2,3c0,0.1,0,0.1,0,0.2c0,0,0,0.1,0,0.1c0,0.4,0.3,0.6,1.1,0.6h1.6v0.8h-6.3v-0.9
			c1.2,0,1.9-0.2,2.1-0.7l6.6-16.2h2.1L305.1,113.2z M293.2,108.6h7.1l-3.6-9.1L293.2,108.6z"/>
		<path class="st2" d="M315.7,97.9c-1.4,0-2.1,0.4-2.1,1.1v13.9c0,0.7,0.7,1.1,2.1,1.1v0.8h-6.7v-0.8c1.4,0,2.2-0.4,2.2-1.1V99
			c0-0.7-0.7-1.1-2.2-1.1V97h6.7V97.9z"/>
		<path class="st2" d="M336.9,97.9c-1.4,0-2.1,0.4-2.1,1.1v15.8h-3.1l-10.5-15.3v13.4c0,0.7,0.7,1.1,2.1,1.1v0.8h-5.7v-0.8
			c1.4,0,2.1-0.4,2.1-1.1V99c0-0.7-0.7-1.1-2.1-1.1V97h5l10.7,15.6V99c0-0.7-0.7-1.1-2.1-1.1V97h5.7V97.9z"/>
	</g>
</g>
<g id="Layer_2">
</g>
</svg>
