<?xml version="1.0" encoding="utf-8"?>
<!-- Generator: Adobe Illustrator 20.0.0, SVG Export Plug-In . SVG Version: 6.00 Build 0)  -->
<svg version="1.1" id="Layer_1" xmlns="http://www.w3.org/2000/svg" xmlns:xlink="http://www.w3.org/1999/xlink" x="0px" y="0px"
	 viewBox="0 0 1600 360" style="enable-background:new 0 0 1600 360;" xml:space="preserve">
<style type="text/css">
	.st0{fill:url(#SVGID_1_);}
</style>
<linearGradient id="SVGID_1_" gradientUnits="userSpaceOnUse" x1="799.9089" y1="200.118" x2="799.9089" y2="346.8223">
	<stop  offset="0" style="stop-color:#C22342"/>
	<stop  offset="1" style="stop-color:#A31E37"/>
</linearGradient>
<path class="st0" d="M1114.8,294.3v-30.2h-9.5v12.6h-81.5v-0.6l-0.7-0.6h-5.8v-21.7h-5.1v-15.1h-2.7v-63.9c0-0.6-1.1-0.7-1.1-0.7
	v-14c-0.5-0.7-1.8-0.4-1.8-0.4v-11.2h-0.4v-0.6h-1.7v-2.1h-0.4v-0.6h-2.3v-0.6l-1.5-3.7v-1.7h-0.4v-0.8h-0.4v-0.5H999v-15l-0.6-1
	V110h-0.9l-0.3-0.6V94.4h-2v15.1l-0.2,0.6h-1v12l-0.6,0.9V138H993v0.5h-0.3v1h-0.3v1.5l-1.5,2.6v0.9h-0.6v0.6h-1.8v0.6h-0.3v2h-1.3
	v0.4H986v11.4c-2,0.1-1.9,0.6-1.9,0.6v13.7c-1,0.1-1.1,0.9-1.1,0.9v64h-2.8v15h-5v9.2h-4.1v-13.7h-7.4v16.8h-18v-95.1h-3.3v7.8h-1.4
	v-3.1h-1.2v-4.7h-8.7l-0.2-31.9l-1.2,31.9h-9.4v7.1h-1.4v-7.8h-1.7v72.6h-7.5V262h-3.7c-0.4-9.8-1.3-35.5-0.6-35.7
	c1-0.3,1-1.4,1-1.4l-2.8-24.9c0,0,0-3.2-3.6-3.3c-3.6-0.1-4.2,3.8-4.2,3.8s-6.9,24.4-7,25.2c-0.2,0.8,1,1.5,1,1.5l-0.2,4.6l-0.5,1.6
	l0.3,0.5l0,0.6l-0.4,1.2l0.2,0.3l-1,15.4h-50.5l-0.1-3.4l-5.9-0.6l-0.3-2.3l-5-0.6l-1.6-18.7l0.5-1.1c0,0-1.1-11.7-0.6-12.2
	c0.5-0.6-0.4-2.3-0.1-3.4c0.2-1.1,0.8-3.8,0.8-3.8c0.9-0.3,1.5-1.4,1.5-1.4c0.2-1.6-0.9-9.3-0.9-9.3c0.9-4.4-1.4-15.1-1.4-15.1
	c1-1,1.8-6.4,1.8-6.4l1.3-0.1l4-7c3-1.7,6.8-7.1,6.8-7.1c0.9-0.4,1.9-2.1,1.9-2.1c0.3-0.6-0.9-3.4-0.9-3.4l1.1-2.4l-0.6-1.9l0.8-0.6
	l-0.4-1.4l-12.6-4.1l-0.4,2l-1.5-0.3l-3,4.8c-0.5-2.1-3.7-3.6-3.7-3.6c0.4-2.3-1.1-4.7-1.6-7.1c-0.5-2.4-1-5.1-1.4-6
	c-0.4-0.9-1-1.3-1.5-2c-0.5-0.7-1.9-1.6-1.9-1.6c-0.4-0.5-0.9-0.8-1.4-1.1l-1.4-7c0,0,0.5-0.4,0.8-1.3c0.3-0.9-0.6-4.4-1-5.3
	c-0.4-0.9,0-1.9,0-1.9c0.3,0.7,1.3-0.1,1.3-0.1l-0.4-2.6l0.3-1l9.1-1.3l-8.7-0.7l-0.2-2.4l9.3-5.8l-9.4,4.3c0-0.7-1.1-2.7-1.1-2.7
	l5.2-10.1l-6.7,8.8c-0.4-0.9-2.9-1.6-2.9-1.6V86.5l-2,11.1c-0.9-0.3-2.9,0.9-2.9,0.9l-5-9.1l3.3,10.3c-1.3,0.6-2.3,2.7-2.3,2.7
	l-0.4-0.4l-4-1.1c-0.2-0.6-0.4-1-0.4-1c0-2.7-0.6-12.5-1.1-14.8c-0.5-2.3,0-11.5,0-11.5c-0.4-6.8-2.5-8.7-2.5-8.7l0.1-1.4
	c1.1-0.9,0.8-1.8,0.8-1.8c4.8-2.1,2.1-4.7,2.1-4.7l-0.1-2.1c-0.5-1.3-2.4-1.6-2.4-1.6c1-1.1,0-2.9-0.6-4.1c-0.6-1.3-1.4-1.6-1.4-1.6
	c-0.1-1.7-1.6-1.6-1.6-1.6c0.2,0.4-0.6,1-0.6,1c-0.3-0.9-1.5-0.6-1.5-0.6c-0.5,0.6-0.1,2.3-0.1,2.3c-0.6-0.7-1.5,0.7-1.5,0.7
	c0.9-0.4,1.1,0.7,0.6,1.6c-0.5,0.9,0.6,2.4,0.6,2.4c-0.6,0-1.8,1.1-1.8,1.1l-0.3,2.1c-2.8,2,1.3,4.3,1.3,4.3
	c-1.3,0.9,0.6,3.6,0.6,3.6c-1.1,0.6-0.1,2.4-0.1,2.4c-0.6,0.3,0.5,2,0.5,2c-1.5,1,1.4,5.7,1.4,5.7c-1.8,0.6,0.4,5,0.4,5
	c-0.8,1,0.3,2.3,0.3,2.3c-1.4,9.1-0.5,14.4-0.1,16c0.4,1.6,0.4,6.7,0.4,6.7c-1.8,1.4-4.4,7-4.4,7c-1.8,4.1,0.5,8.7,1.4,9.1
	c0.9,0.4,0,1,0,1s-0.4,1-0.3,1.7c0.1,0.7,0.1,1-0.5,2.3c-0.6,1.3,0.3,1.9,0.4,3.1c0.1,1.3,1.9,1.7,2.4,2.9c0.5,1.1-0.6,0.7-1,1.6
	c-0.4,0.9,0.6,1.9,0.4,2.4c-0.2,0.6-0.1,0.4,0.4,0.6c0.5,0.1,0.3,0.6-0.3,1.4c-0.5,0.9-1,1.3-1.5,2.1c-0.5,0.9,0.9,1,1.3,1.4
	c0.4,0.4,0,0,0,0.7c0,0.7,0.9,1.9,1.3,2.3c0.4,0.4,0.8,0,1,0.7c0.3,0.7,1.5,5.8,1.5,5.8c-1.6,1.7-4.7,12.7-4.7,12.7
	c-0.5,4.3,5.2,3.3,5.2,3.3c-0.9,1-0.3,4.3-0.3,4.3c-1.8,1.7-2.6,6.8-2.6,6.8c-0.6,1.9,1.4,3.7,1.4,3.7c-0.9,1.7,0.3,8.3,0.5,10.3
	c0.2,2,0.6,6.4,0.2,8.4c-0.4,2-1.5,4.8-1.5,4.8c-1.5,2.4,0.4,3.1,0.4,3.1c-4,9.1-3.3,21.2-3.4,21.7c-0.1,0.4-0.3,1.1-0.3,1.1
	l-0.4,2.3c-1.5,2.9,0,4.3,0,4.3c-0.8,0.3-0.6,4-0.6,4l-1.5,3.4l-3.8-0.1l-8.2,17.7v2h-32.7v-10.6h-1.2v-17.1h-2.4v-14.5h-4.1v-6.5
	l-2-2.9c-0.4-3.3-3.3-3.3-3.3-3.3c-2.2,0.6-2.8,3.3-2.8,3.3l-1.8,2.6v7.3H712v13.9v9.5h-21.4v-27.6l-2.1-11.2v-46.6l-3.7,6.9
	l-3.5,1.4v-34.1h-0.4v-7.1h-0.5v7.2l-1.8,35.4l-9.4,4.4l-6.7-1.4v44.3l-2,13.4v32.7l-0.4,0.4h-21.5v3h-0.8v6.7h-2.1v-40h-4.2v42.1
	h-3.8v-20.6h-3.2v-13.6c-0.1-1.3-1.5-1.3-1.5-1.3v-4.8h-1.6v-5.2h0.8v-2.5h-2.5v-56.5h1V170h-2.4v-15.4h-1.1v-1.1h-0.7v-3.2h-0.3
	v-0.8h-0.4v-3.8h-0.5v-0.7H615c0,0,0-2.6,0-3.5c0-0.9-1.2-0.9-1.2-0.9v-3.8h-0.7v-1.3h-0.3v-3.3h-0.4v-1.1H612v-4.4h-0.4v-5.3h-0.4
	v-10.7h-0.6v-4.4h-0.4v4.4h-0.3v10.7h-0.4v5.3h-0.4v4.4h-0.4v1.2h-0.4v3.3h-0.4v1.1h-0.8v3.9c-1,0-1.3,0.7-1.3,0.7v3.7h-0.4v0.5
	h-0.4v3.9h-0.3v0.8h-0.4v3h-0.8v1.3h-1.3v15.5h-2.8v1.1h1.1v56.6h-2.3v2.5h0.9v5h-1.7v4.8c-1.4,0.1-1.5,1.1-1.5,1.1v14h-3.3v20.5
	h-28.2v-22.1h-5.3v23.1h-9.5v-8.4h-8.4v14.7H456v11.7c-66.4,0-455.8-0.1-455.8-0.1L-0.2,360H1600l0-65.3
	C1600,294.7,1259.7,294.3,1114.8,294.3z M794.7,108.3c0.1,1.3,0.6,3.3,0.6,3.3s0,0.9-0.4,0.7c-0.4-0.1-0.8-1.6-0.9-2.4
	C794,109.2,794.6,108.7,794.7,108.3z M794.2,107.1l0.6,0.2c-0.1,0.2-0.1,0.4-0.1,0.8c0-0.1-0.1-0.1-0.1-0.2
	C794.3,107.6,794.2,107.4,794.2,107.1z M806.9,122c-0.3,2.7,1.4,2.9,1.4,2.9l0.6,2.6c-0.9-0.2-1.6-0.2-1.6-0.2
	C806.5,126.1,806.9,122,806.9,122z M795.7,103.4c-0.6,0.4-0.8,2.4-0.8,2.4l-0.9-0.4c-0.3-0.8-0.9-1.8-1.2-2.5
	c-0.1-0.2-0.3-0.5-0.4-0.8L795.7,103.4z"/>
</svg>
