<?xml version="1.0" encoding="utf-8"?>
<!-- Generator: Adobe Illustrator 19.2.1, SVG Export Plug-In . SVG Version: 6.00 Build 0)  -->
<svg version="1.1" id="Layer_1" xmlns="http://www.w3.org/2000/svg" xmlns:xlink="http://www.w3.org/1999/xlink" x="0px" y="0px"
	 viewBox="0 0 256.8 61.5" style="enable-background:new 0 0 256.8 61.5;" xml:space="preserve">
<style type="text/css">
	.st0{fill:#0064C3;}
	.st1{fill:#FF6642;}
</style>
<g>
	<path class="st0" d="M1.1,14.9h1.4v3.8h0.1C2.7,18.1,3,17.6,3.3,17c0.4-0.5,0.8-1,1.3-1.4c0.5-0.4,1.1-0.7,1.8-0.9
		c0.6-0.2,1.3-0.3,2-0.3c0.9,0,1.7,0.1,2.3,0.3c0.7,0.2,1.2,0.5,1.7,0.9c0.5,0.4,0.8,0.8,1.1,1.3c0.3,0.5,0.5,1,0.5,1.4h0.1
		c0.6-1.3,1.3-2.3,2.2-3c0.9-0.7,2.2-1,3.7-1c0.9,0,1.6,0.1,2.4,0.4c0.7,0.3,1.3,0.6,1.9,1.2c0.5,0.5,0.9,1.2,1.2,2
		c0.3,0.8,0.4,1.8,0.4,2.9v12.8h-1.4V20.8c0-1.2-0.2-2.1-0.5-2.8c-0.4-0.7-0.8-1.2-1.3-1.6c-0.5-0.4-1-0.6-1.5-0.7
		c-0.5-0.1-0.9-0.1-1.2-0.1c-0.9,0-1.6,0.1-2.4,0.4c-0.7,0.3-1.3,0.7-1.9,1.3c-0.5,0.6-0.9,1.3-1.2,2.2c-0.3,0.9-0.4,1.9-0.4,3v11.1
		h-1.4V20.8c0-1.2-0.2-2.1-0.5-2.8c-0.4-0.7-0.8-1.2-1.2-1.6s-1-0.6-1.5-0.7c-0.5-0.1-0.9-0.1-1.2-0.1c-0.7,0-1.3,0.1-2,0.4
		c-0.7,0.3-1.4,0.7-1.9,1.2c-0.6,0.6-1.1,1.3-1.4,2.2c-0.4,0.9-0.5,1.9-0.5,3.1v11.1H1.1V14.9z"/>
	<path class="st0" d="M32.5,24.5v0.2c0,1.1,0.1,2.1,0.4,3.1c0.3,1,0.7,1.9,1.3,2.6c0.6,0.8,1.3,1.4,2.2,1.8c0.9,0.4,1.9,0.7,3,0.7
		c1.9,0,3.4-0.5,4.5-1.5c1.1-1,1.9-2.4,2.3-4.1h1.4c-0.4,2.2-1.3,3.9-2.7,5c-1.4,1.2-3.2,1.8-5.5,1.8c-1.4,0-2.6-0.3-3.6-0.8
		c-1-0.5-1.9-1.2-2.6-2c-0.7-0.9-1.2-1.9-1.6-3.1s-0.5-2.5-0.5-3.8c0-1.3,0.2-2.6,0.5-3.8c0.4-1.2,0.9-2.3,1.6-3.2
		c0.7-0.9,1.6-1.6,2.7-2.2c1.1-0.5,2.3-0.8,3.7-0.8c1.3,0,2.5,0.2,3.5,0.7c1,0.5,1.9,1.2,2.5,2c0.7,0.8,1.2,1.8,1.6,2.9
		c0.4,1.1,0.5,2.3,0.5,3.6c0,0.1,0,0.3,0,0.4c0,0.2,0,0.3,0,0.4H32.5z M46.3,23.2c0-1-0.2-2-0.5-2.9c-0.3-0.9-0.7-1.7-1.3-2.4
		c-0.6-0.7-1.3-1.2-2.1-1.7c-0.8-0.4-1.8-0.6-2.8-0.6c-1.1,0-2.1,0.2-3,0.6c-0.9,0.4-1.6,1-2.2,1.7c-0.6,0.7-1,1.5-1.4,2.4
		c-0.3,0.9-0.5,1.9-0.6,2.9H46.3z"/>
	<path class="st0" d="M67.3,29.6L67.3,29.6c-0.9,1.5-1.8,2.6-3,3.3c-1.2,0.7-2.6,1.1-4.3,1.1c-1.4,0-2.6-0.3-3.7-0.8
		c-1-0.5-1.9-1.3-2.5-2.2c-0.7-0.9-1.1-1.9-1.5-3.1c-0.3-1.2-0.5-2.4-0.5-3.7c0-1.4,0.2-2.7,0.5-3.9s0.9-2.2,1.6-3.1
		c0.7-0.9,1.6-1.6,2.6-2.1c1-0.5,2.3-0.8,3.7-0.8c0.8,0,1.5,0.1,2.2,0.3c0.7,0.2,1.4,0.5,2,0.9c0.6,0.4,1.2,0.9,1.6,1.5
		c0.5,0.6,0.8,1.2,1.1,2h0.1V7.6h1.4v26.1h-1.4V29.6z M60.3,32.9c1.2,0,2.2-0.2,3.1-0.7c0.9-0.5,1.6-1.1,2.2-1.9
		c0.6-0.8,1-1.7,1.3-2.8c0.3-1,0.4-2.1,0.4-3.2c0-1.1-0.1-2.2-0.4-3.2c-0.3-1-0.7-2-1.3-2.8c-0.6-0.8-1.3-1.5-2.2-2
		c-0.9-0.5-1.9-0.7-3.1-0.7c-1.2,0-2.3,0.2-3.2,0.7c-0.9,0.5-1.6,1.1-2.2,1.9c-0.6,0.8-1,1.7-1.2,2.8c-0.3,1-0.4,2.1-0.4,3.3
		c0,1.1,0.1,2.2,0.4,3.2s0.7,2,1.3,2.8c0.6,0.8,1.3,1.4,2.2,1.9C58.1,32.7,59.1,32.9,60.3,32.9z"/>
	<path class="st0" d="M75.3,11.3V7.6h1.4v3.8H75.3z M75.3,33.7V14.9h1.4v18.8H75.3z"/>
	<path class="st1" d="M98.4,14.9v17.8c0,1-0.1,2.1-0.4,3.1c-0.2,1-0.7,1.9-1.3,2.6c-0.6,0.8-1.4,1.4-2.5,1.8c-1,0.5-2.4,0.7-4,0.7
		c-1,0-1.9-0.1-2.8-0.3c-0.9-0.2-1.6-0.5-2.3-1s-1.2-1-1.6-1.8C83.3,37,83.1,36.1,83,35h1.4c0.1,0.8,0.3,1.5,0.6,2.1
		c0.3,0.6,0.8,1.1,1.3,1.4c0.5,0.4,1.2,0.7,1.8,0.8c0.7,0.2,1.4,0.3,2.2,0.3c1.3,0,2.4-0.2,3.2-0.6c0.9-0.4,1.6-0.9,2.1-1.5
		c0.5-0.6,0.9-1.3,1.1-2.1c0.2-0.8,0.3-1.6,0.3-2.4v-4.3H97c-0.7,1.4-1.6,2.5-2.7,3.2S91.8,33,90.2,33c-1.4,0-2.6-0.2-3.6-0.7
		c-1-0.5-1.8-1.1-2.5-2s-1.2-1.8-1.5-2.9c-0.3-1.1-0.5-2.3-0.5-3.7c0-1.2,0.2-2.4,0.5-3.5c0.4-1.1,0.9-2.1,1.6-2.9
		c0.7-0.8,1.5-1.5,2.5-2c1-0.5,2.2-0.8,3.5-0.8c1.5,0,2.9,0.4,4.1,1.1c1.3,0.8,2.2,1.8,2.7,3.2h0.1v-3.9H98.4z M90.2,15.6
		c-1.1,0-2.1,0.2-3,0.7c-0.8,0.5-1.5,1.1-2.1,1.8c-0.5,0.8-1,1.6-1.2,2.6c-0.3,1-0.4,1.9-0.4,2.9c0,1.1,0.1,2.1,0.4,3.1
		c0.3,1,0.7,1.8,1.3,2.6c0.6,0.7,1.3,1.3,2.1,1.7c0.8,0.4,1.8,0.6,2.9,0.6c1.1,0,2.1-0.2,3-0.7c0.9-0.4,1.6-1,2.1-1.8
		c0.6-0.8,1-1.6,1.3-2.6c0.3-1,0.4-2,0.4-3.1c0-1-0.1-2.1-0.4-3c-0.3-1-0.7-1.8-1.3-2.6c-0.6-0.7-1.3-1.3-2.1-1.8
		C92.4,15.9,91.4,15.6,90.2,15.6z"/>
	<path class="st1" d="M116.9,29.9L116.9,29.9c-0.3,0.6-0.6,1.1-1,1.6c-0.4,0.5-0.9,0.9-1.5,1.3c-0.6,0.4-1.3,0.7-2,0.9
		c-0.8,0.2-1.6,0.3-2.5,0.3c-2,0-3.5-0.4-4.6-1.3s-1.6-2.2-1.6-4c0-1.1,0.2-2,0.7-2.7s1-1.2,1.7-1.6c0.7-0.4,1.4-0.7,2.2-0.9
		c0.8-0.2,1.6-0.3,2.4-0.4l2.2-0.2c1-0.1,1.8-0.2,2.4-0.3c0.6-0.2,1-0.4,1.3-0.7c0.3-0.3,0.5-0.6,0.5-1.1s0.1-1,0.1-1.6
		c0-0.5-0.1-1-0.3-1.4c-0.2-0.4-0.5-0.8-0.9-1.2c-0.4-0.3-1-0.6-1.6-0.8c-0.7-0.2-1.5-0.3-2.4-0.3c-1.7,0-3,0.4-4.1,1.2
		c-1,0.8-1.6,2.1-1.7,3.8h-1.4c0.1-2.1,0.8-3.6,2-4.7c1.2-1,3-1.6,5.2-1.6s3.9,0.4,5,1.3c1,0.9,1.6,2.1,1.6,3.5v10.9
		c0,0.3,0,0.5,0,0.8c0,0.3,0.1,0.5,0.1,0.7c0.1,0.2,0.2,0.4,0.4,0.5c0.2,0.1,0.4,0.2,0.7,0.2c0.2,0,0.6,0,1-0.1v1.2
		c-0.4,0.1-0.7,0.1-1.1,0.1c-0.6,0-1-0.1-1.3-0.2c-0.3-0.1-0.6-0.3-0.7-0.6c-0.2-0.2-0.3-0.5-0.3-0.9c-0.1-0.3-0.1-0.7-0.1-1.1V29.9
		z M116.9,23c-0.3,0.4-0.9,0.7-1.6,0.8c-0.7,0.1-1.5,0.3-2.3,0.3l-2.3,0.2c-0.7,0.1-1.4,0.2-2,0.3c-0.7,0.1-1.3,0.4-1.8,0.7
		c-0.5,0.3-1,0.7-1.3,1.3c-0.3,0.5-0.5,1.3-0.5,2.1c0,1.4,0.4,2.4,1.3,3.1c0.9,0.7,2.1,1,3.6,1c1.6,0,2.8-0.3,3.8-0.9
		c0.9-0.6,1.6-1.2,2.1-2c0.5-0.7,0.8-1.5,0.9-2.2c0.1-0.7,0.2-1.2,0.2-1.4V23z"/>
	<path class="st1" d="M126.2,19.2h0.1c0.1-0.5,0.4-1,0.7-1.5c0.3-0.6,0.8-1.1,1.4-1.6c0.6-0.5,1.2-0.9,2-1.2
		c0.8-0.3,1.7-0.5,2.7-0.5c1.4,0,2.7,0.3,3.7,0.8c1.1,0.5,1.9,1.3,2.6,2.2c0.7,0.9,1.2,2,1.6,3.1c0.3,1.2,0.5,2.5,0.5,3.8
		c0,1.4-0.2,2.8-0.5,3.9c-0.3,1.2-0.9,2.2-1.6,3.1c-0.7,0.9-1.6,1.5-2.6,2s-2.3,0.7-3.8,0.7c-1.6,0-3-0.3-4.2-1
		c-1.2-0.7-2.1-1.8-2.7-3.3h-0.1l0,10.6h-1.4V14.9h1.4V19.2z M133.1,32.9c1.2,0,2.3-0.2,3.2-0.7c0.9-0.5,1.6-1.1,2.2-1.9
		c0.6-0.8,1-1.7,1.3-2.7c0.3-1,0.4-2.1,0.4-3.3c0-1.1-0.1-2.1-0.4-3.2c-0.3-1-0.7-2-1.2-2.8c-0.6-0.8-1.3-1.5-2.2-2
		c-0.9-0.5-2-0.7-3.2-0.7c-1.2,0-2.3,0.2-3.2,0.7c-0.9,0.5-1.6,1.1-2.1,1.9c-0.6,0.8-0.9,1.7-1.2,2.8c-0.2,1-0.4,2.1-0.4,3.2
		c0,1.1,0.1,2.2,0.3,3.2c0.2,1,0.6,2,1.1,2.7c0.5,0.8,1.2,1.4,2.1,1.9C130.7,32.7,131.8,32.9,133.1,32.9z"/>
</g>
<g>
	<path class="st0" d="M207.2,19.7c-0.4-0.6-1-1.1-1.7-1.5s-1.5-0.6-2.4-0.6s-1.7,0.2-2.4,0.6c-0.7,0.4-1.2,0.9-1.7,1.5
		c-0.4,0.6-0.7,1.4-0.9,2.2c-0.2,0.8-0.3,1.6-0.3,2.5s0.1,1.7,0.3,2.5c0.2,0.8,0.5,1.5,0.9,2.2c0.4,0.6,1,1.1,1.7,1.5
		c0.7,0.4,1.5,0.6,2.4,0.6s1.7-0.2,2.4-0.6c0.7-0.4,1.2-0.9,1.7-1.5c0.4-0.6,0.7-1.4,0.9-2.2c0.2-0.8,0.3-1.6,0.3-2.5
		s-0.1-1.7-0.3-2.5C207.9,21,207.6,20.3,207.2,19.7z"/>
	<path class="st0" d="M171.2,19.7c-0.4-0.6-1-1.1-1.7-1.5s-1.5-0.6-2.4-0.6s-1.7,0.2-2.4,0.6c-0.7,0.4-1.2,0.9-1.7,1.5
		c-0.4,0.6-0.7,1.4-0.9,2.2c-0.2,0.8-0.3,1.6-0.3,2.5s0.1,1.7,0.3,2.5c0.2,0.8,0.5,1.5,0.9,2.2c0.4,0.6,1,1.1,1.7,1.5
		c0.7,0.4,1.5,0.6,2.4,0.6c0.3,0,0.7,0,1-0.1c0.3-0.1,0.7-0.2,1-0.3l-1.8-1.6l1.5-1.7l2.1,1.9c0.6-0.7,1-1.4,1.2-2.3
		c0.2-0.9,0.3-1.7,0.3-2.6c0-0.8-0.1-1.7-0.3-2.5C171.9,21,171.6,20.3,171.2,19.7z"/>
	<path class="st0" d="M254.5,43.2V7c0-2.9-2.3-5.3-5.1-5.3h-97c-2.8,0-5.1,2.4-5.1,5.3v36.2c0,2.9,2.3,5.3,5.1,5.3h62.8l4.7,11.2
		l12.6-11.2h17C252.2,48.5,254.5,46.1,254.5,43.2z M175.4,26.1c-0.1,0.6-0.2,1.2-0.4,1.8c-0.2,0.6-0.5,1.2-0.8,1.7
		c-0.3,0.5-0.7,1-1.1,1.4l2.3,2l-1.5,1.7l-2.6-2.2c-0.7,0.4-1.3,0.6-2,0.8c-0.7,0.2-1.4,0.2-2.1,0.2c-1.3,0-2.5-0.2-3.5-0.7
		s-1.9-1.1-2.6-2s-1.3-1.8-1.7-2.9c-0.4-1.1-0.6-2.3-0.6-3.6c0-1.2,0.2-2.4,0.6-3.5c0.4-1.1,0.9-2.1,1.7-2.9s1.6-1.5,2.6-2
		c1-0.5,2.2-0.7,3.5-0.7s2.5,0.2,3.5,0.7c1,0.5,1.9,1.2,2.6,2c0.7,0.8,1.3,1.8,1.7,2.9c0.4,1.1,0.6,2.3,0.6,3.5
		C175.5,24.9,175.5,25.5,175.4,26.1z M192.3,26.8c0,1.1-0.2,2.1-0.5,3s-0.8,1.5-1.5,2.1c-0.6,0.6-1.4,1-2.3,1.3
		c-0.9,0.3-1.9,0.4-3,0.4s-2.1-0.1-3-0.4c-0.9-0.3-1.6-0.7-2.3-1.3c-0.6-0.6-1.1-1.3-1.5-2.1s-0.5-1.8-0.5-3V15.5h3.1v10.3
		c0,0.6,0,1.2,0.1,1.8c0.1,0.6,0.2,1.2,0.5,1.6c0.3,0.5,0.7,0.9,1.2,1.2c0.6,0.3,1.3,0.5,2.3,0.5s1.8-0.2,2.3-0.5
		c0.5-0.3,1-0.7,1.2-1.2c0.3-0.5,0.4-1,0.5-1.6c0.1-0.6,0.1-1.2,0.1-1.8V15.5h3.1V26.8z M211,27.9c-0.4,1.1-0.9,2.1-1.7,2.9
		c-0.7,0.8-1.6,1.5-2.6,2c-1,0.5-2.2,0.7-3.5,0.7s-2.5-0.2-3.5-0.7s-1.9-1.1-2.6-2s-1.3-1.8-1.7-2.9c-0.4-1.1-0.6-2.3-0.6-3.6
		c0-1.2,0.2-2.4,0.6-3.5c0.4-1.1,0.9-2.1,1.7-2.9s1.6-1.5,2.6-2c1-0.5,2.2-0.7,3.5-0.7s2.5,0.2,3.5,0.7c1,0.5,1.9,1.2,2.6,2
		c0.7,0.8,1.3,1.8,1.7,2.9c0.4,1.1,0.6,2.3,0.6,3.5C211.5,25.6,211.4,26.8,211,27.9z M226.7,18.2h-5.6v14.9H218V18.2h-5.6v-2.7h14.2
		V18.2z M241.3,33.1h-12.8V15.5h12.7v2.7h-9.6v4.6h8.9v2.5h-8.9v5.2h9.8V33.1z"/>
</g>
</svg>
