<?xml version="1.0" encoding="utf-8"?>
<!-- Generator: Adobe Illustrator 20.1.0, SVG Export Plug-In . SVG Version: 6.00 Build 0)  -->
<svg version="1.1" id="Layer_1" xmlns="http://www.w3.org/2000/svg" xmlns:xlink="http://www.w3.org/1999/xlink" x="0px" y="0px"
	 viewBox="0 0 300 300" style="enable-background:new 0 0 300 300;" xml:space="preserve">
<style type="text/css">
	.st0{fill:none;stroke:#26499F;stroke-width:0.75;stroke-miterlimit:10;}
</style>
<path class="st0" d="M127,254.5c0.6-2.4,2.1-3.9-0.9-6.4c-3-2.6-9.4-6-7.2-8.7C121,236.6,222,224,222,224c0-2.4-4.6-10.4-5.2-12.7
	c-0.5-2.3,1.2-10.8,1.2-14.5c0-3.7-3.7-6.5-5.1-8.3c-1.5-1.7,0-7.9,1.4-9.3c1.4-1.4,1.2-5.7,0-7.4c-1.1-1.7,0.9-2.8,2.5-3.9
	c1.7-1.2,2.6-2.3,2.6-4.8c0-2.6-1.7-1.2-2.6-4.3c-0.8-3.1,0.6-4.8-0.8-6c-1.4-1.1-4-2-4-2l-36-113.4c-30.8,3.4-65.5,7.2-98.1,10.2
	c0.7,1.4,1.5,2.6,2.6,3.4c3.1,2.3,1.7,3.7,1.7,5.1c0,1.4-1.7,145.8-1.7,145.8L89,269c2.2-1.3,4.5-1.5,8.1-0.8c4.3,0.8,3.8,0.4,4-3.1
	c0.1-3.5-0.7-12.5,1.6-13.4c2.3-0.8,7.4,0.5,6.2,3.6c-1.1,3.1-3.8,3.6-2.2,6c1.7,2.4,6.5,3,6.8,5.7c0.3,2.7,2.1,3.7-2.3,4.4
	c-4.4,0.7-8.4,1.7-5.4,2.2c3,0.6,4.7-0.4,9.1-0.8c4.4-0.5,5.4,0.8,7.1-2.8c1.7-3.5,1.6-5.5,3.7-3.7c0.5,0.5,0.9,0.9,1.3,1.3
	c1.2-2.4,2.7-5.2,2.6-6.2C129.5,259.8,126.3,256.8,127,254.5z"/>
</svg>
