<svg id="Layer_1" xmlns="http://www.w3.org/2000/svg" xmlns:xlink="http://www.w3.org/1999/xlink" viewBox="0 0 427 147"><style>.st0{fill:none}.st0,.st1{enable-background:new}.st2{fill:#1b69c2}.st3{fill:#f31141}.st4{fill:#393a3d}</style><g class="st1"><path class="st2" d="M36 39.5v46.1c0 15 7.7 19.4 16.1 19.4 9.6 0 15.5-5.2 15.5-19.4V39.5h16.9v45.4c0 26.6-15.5 33.3-32.7 33.3-17.6 0-32.7-7.1-32.7-33V39.5H36zM112.7 94.3c1.8 7.8 7.3 11.3 16.3 11.3s12.8-3.6 12.8-9.2c0-6.4-3.7-9.1-17-12.2-21.2-5-26.4-12.7-26.4-23.2 0-13.5 10.1-22.6 28.5-22.6 20.6 0 28.8 11 30 22.4H140c-.9-4.8-3.5-10-13.5-10-6.9 0-10.9 2.8-10.9 8.3 0 5.4 3.3 7.7 15.9 10.5C154 74.9 159 83.3 159 94.3c0 14.1-10.7 23.9-31.2 23.9-19.7 0-30.2-9.7-32-23.9h16.9zM188.1 99.1l-6 17.9h-16.6l26.4-77.5H213l27.6 77.5h-17.7l-6.4-17.9h-28.4zm24.7-13.7c-5.5-16.4-9-26.9-10.9-33.9h-.1c-1.9 7.7-5.7 19.8-10.1 33.9h21.1z"/></g><g class="st1"><path class="st3" d="M247.5 40.6l11.4 29h.1l11.4-29h6.2v35.7h-4.8V62.2l.5-14.5h-.1l-11.6 28.7h-3.2l-11.5-28.6h-.1l.5 14.4v14.1h-4.8V40.6h6zM306.7 59.7h-16.4v12.7h18.9v3.8h-23.7V40.6h23.4v3.8h-18.6v11.5h16.4v3.8zM314.9 76.3V40.6h11c4.7 0 8.4 1.4 11.3 4.3 2.8 2.9 4.2 6.6 4.2 11.1v4.9c0 4.6-1.4 8.3-4.2 11.1-2.8 2.9-6.6 4.3-11.3 4.3h-11zm4.8-31.9v28.1h6.1c3.3 0 5.9-1.1 7.8-3.3 1.9-2.2 2.9-5 2.9-8.4v-4.9c0-3.4-1-6.1-2.9-8.3-1.9-2.2-4.5-3.3-7.8-3.3h-6.1z"/></g><g class="st1"><path class="st4" d="M259.7 107c0-1.3-.5-2.3-1.3-3.1-.9-.8-2.5-1.5-4.7-2.2-3.9-1.1-6.9-2.5-8.9-4-2-1.6-3-3.7-3-6.4s1.2-4.9 3.5-6.6 5.3-2.6 8.8-2.6c3.6 0 6.6 1 8.9 2.9 2.3 1.9 3.4 4.3 3.3 7.1v.1h-6.4c0-1.5-.5-2.8-1.5-3.7s-2.5-1.4-4.3-1.4c-1.8 0-3.1.4-4.1 1.2-1 .8-1.5 1.8-1.5 3 0 1.1.5 2 1.6 2.8 1 .7 2.8 1.5 5.4 2.3 3.6 1 6.4 2.4 8.3 4 1.9 1.7 2.8 3.8 2.8 6.5 0 2.8-1.1 5.1-3.3 6.7-2.2 1.6-5.2 2.4-8.8 2.4-3.6 0-6.7-.9-9.4-2.8s-4-4.4-3.9-7.8v-.1h6.4c0 2 .6 3.4 1.8 4.3 1.2.9 2.9 1.4 5 1.4 1.8 0 3.2-.4 4.1-1.1.7-.7 1.2-1.7 1.2-2.9zM297.5 82.6v21.9c0 3.7-1.2 6.6-3.7 8.6s-5.7 3-9.6 3c-3.9 0-7.1-1-9.6-3-2.4-2-3.6-4.9-3.6-8.6V82.6h6.6v21.9c0 2.2.6 3.8 1.7 4.9 1.2 1.1 2.8 1.6 4.8 1.6 2.1 0 3.7-.5 4.9-1.6 1.2-1.1 1.8-2.7 1.8-4.9V82.6h6.7zM309.9 103.6v12h-6.6v-33h13.2c3.8 0 6.8 1 9 2.9s3.3 4.5 3.3 7.6-1.1 5.7-3.3 7.6c-2.2 1.9-5.2 2.9-9 2.9h-6.6zm0-5.1h6.5c1.8 0 3.2-.5 4.2-1.5s1.4-2.3 1.4-3.8c0-1.6-.5-2.9-1.4-3.9-.9-1-2.3-1.6-4.2-1.6h-6.5v10.8zM340.2 103.6v12h-6.6v-33h13.2c3.8 0 6.8 1 9 2.9s3.3 4.5 3.3 7.6-1.1 5.7-3.3 7.6c-2.2 1.9-5.2 2.9-9 2.9h-6.6zm0-5.1h6.5c1.8 0 3.2-.5 4.2-1.5s1.4-2.3 1.4-3.8c0-1.6-.5-2.9-1.4-3.9-.9-1-2.3-1.6-4.2-1.6h-6.5v10.8z"/></g><g id="i913S6_1_"><image width="58" height="38" id="i913S6" xlink:href="9E7C23FB16AEFEBE.png" transform="translate(348 38.355)" overflow="visible"/></g></svg>