<svg xmlns="http://www.w3.org/2000/svg" viewBox="0 0 353.3 133.7"><style>.st0{fill:#e0162b}.st1{fill:#0e0751}.st2{fill:#37383b}</style><g id="Layer_1"><path class="st0" d="M114.9 18.4l-1.9 5.1-5.7.2 4.5 3.3-1.6 5.2 4.7-3.1 4.6 3.1-1.6-5.2 4.5-3.3-5.7-.2zM133.6 18.4l-1.9 5.1-5.6.2 4.5 3.3-1.6 5.2 4.6-3.1 4.7 3.1-1.6-5.2 4.4-3.3-5.6-.2z"/><path class="st1" d="M145.2 26.7h189v1.7h-189zM18.9 107.8h84.5v1.7H18.9z"/><path class="st0" d="M114.9 99.8l-1.9 5.1-5.7.2 4.5 3.3-1.6 5.1 4.7-3 4.6 3-1.6-5.1 4.5-3.3-5.7-.2zM133.6 99.8l-1.9 5.1-5.6.2 4.5 3.3-1.6 5.1 4.6-3 4.7 3-1.6-5.1 4.4-3.3-5.6-.2z"/><path class="st1" d="M48.6 84.3h-6V67.8H25.7v16.5h-6V47.7h6v15h16.9v-15h6v36.6zM78.9 84.3H58.2V47.7h20.7v5.1H64.2v10H78v5H64.2v11.5h14.7v5zM109.5 84.3l-3.7-10.2h-14l-3.6 10.2H82l13.7-36.7h6.5l13.7 36.7h-6.4zM104.3 69l-3.4-10c-.2-.7-.6-1.7-1-3.2-.4-1.4-.7-2.5-.9-3.2-.5 2.1-1.1 4.3-2 6.7L93.6 69h10.7zM120.7 84.3V47.7h6v31.5h15.5v5.1h-21.5zM161.1 84.3h-6V52.8h-10.8v-5.1h27.5v5.1H161v31.5zM206.4 84.3h-6V67.8h-16.9v16.5h-6V47.7h6v15h16.9v-15h6v36.6zM231.6 52.3c-3.4 0-6.1 1.2-8.1 3.7-2 2.4-3 5.8-3 10.1 0 4.5.9 7.9 2.8 10.2 1.9 2.3 4.6 3.5 8.2 3.5 1.6 0 3.1-.2 4.5-.5 1.5-.3 3-.7 4.5-1.2v5.1c-2.9 1.1-6.1 1.6-9.8 1.6-5.4 0-9.5-1.6-12.3-4.9s-4.3-7.9-4.3-13.9c0-3.8.7-7.1 2.1-10 1.4-2.9 3.4-5 6-6.6 2.6-1.5 5.7-2.3 9.3-2.3 3.7 0 7.2.8 10.4 2.4l-2.2 5c-1.2-.6-2.5-1.1-3.9-1.5-1.3-.5-2.7-.7-4.2-.7zM271.2 84.3l-3.7-10.2h-14L250 84.3h-6.3l13.7-36.7h6.5l13.7 36.7h-6.4zM266 69l-3.4-10c-.2-.7-.6-1.7-1-3.2-.4-1.4-.7-2.5-.9-3.2-.5 2.1-1.1 4.3-2 6.7l-3.3 9.5H266zM288.4 69.7v14.6h-6V47.7h10.3c4.7 0 8.2.9 10.5 2.7 2.3 1.8 3.4 4.4 3.4 8 0 4.6-2.4 7.8-7.1 9.7l10.3 16.2H303l-8.8-14.6h-5.8zm0-5h4.2c2.8 0 4.8-.5 6.1-1.6 1.3-1 1.9-2.6 1.9-4.6 0-2.1-.7-3.6-2-4.5-1.4-.9-3.4-1.4-6.1-1.4h-4v12.1zM335.9 84.3h-20.7V47.7h20.7v5.1h-14.7v10H335v5h-13.8v11.5h14.7v5z"/><g><path class="st2" d="M42.5 18.1c-1.4 0-2.2.4-2.2 1.1v13.9c0 .7.7 1.1 2.2 1.1v.8h-6.7v-.8c1.4 0 2.1-.4 2.1-1.1V19.5l-6 15.6h-2.3l-6-15.6v13.6c0 .7.7 1.1 2.1 1.1v.8H20v-.8c1.4 0 2.1-.4 2.1-1.1V19.2c0-.7-.7-1.1-2.1-1.1v-.8h5.5l5.9 15.5 5.9-15.5h5.3v.8zM61.4 33.5c.2.5.9.7 2 .7v.8h-7.9v-.8h2.4c.4 0 .7-.2.7-.5v-.1-.1l-1.3-3.2H49l-1.2 3V33.6c0 .4.4.6 1.1.6h1.6v.8h-6.3v-.9c1.2 0 1.9-.2 2.1-.7l6.6-16.2H55l6.4 16.3zm-11.8-4.7h7.1l-3.6-9.1-3.5 9.1zM82.9 18.1c-.6 0-1.1.1-1.5.3-.4.2-.8.5-1.2.8l-4.7 4.2 6.3 9.5c.3.4.6.7 1 .9s.9.3 1.4.3h.8v.8h-8.8v-.8h2.4c.3 0 .4 0 .5-.1.1-.1.1-.2.1-.3 0-.2-.1-.5-.3-.7l-5.2-7.9-4 3.6v4.5c0 .7.7 1.1 2.1 1.1v.8h-6.7v-.8c1.4 0 2.1-.4 2.1-1.1v-14c0-.7-.7-1.1-2.1-1.1v-.8h6.7v.8c-1.4 0-2.1.4-2.1 1.1v7.7l8.2-7.3c.3-.2.4-.5.4-.8 0-.2-.1-.4-.3-.5-.2-.1-.5-.2-.8-.2h-1.5v-.8h7.1v.8zM101.7 22.7l-1 .1c-.3-2.8-1.4-4.2-3.5-4.2H91v6.5h3.6c1.2 0 1.8-1 2-3.1h.9l-.4 7.5h-.9c-.2-2.1-.8-3.2-1.8-3.2H91v7.4h5.4c2.9 0 4.5-1.9 4.9-5.7l1 .2-.6 6.8H86.5v-.8c1.4 0 2.1-.4 2.1-1.1V19.2c0-.7-.7-1.1-2.1-1.1v-.8h15.2v5.4z"/></g><g><path class="st2" d="M162 102.9l-1 .1c-.2-.7-.5-1.4-.9-2-.4-.6-.8-1.1-1.4-1.6-.5-.4-1.1-.8-1.8-1-.7-.2-1.4-.4-2.2-.4-1.2 0-2.2.2-3.1.6-.9.4-1.6 1-2.2 1.7-.6.7-1 1.6-1.2 2.6s-.4 2-.4 3.1c0 1.3.2 2.4.5 3.3.3.9.8 1.7 1.4 2.4s1.3 1.1 2.2 1.4c.9.3 1.8.5 2.8.5.7 0 1.4-.1 2.1-.3.6-.2 1.2-.5 1.7-.9s.9-.8 1.1-1.2.4-1 .4-1.5v-1.3c0-.7-.7-1.1-2.2-1.1v-.8h6.8v.8c-1.4 0-2.2.4-2.2 1.1v6.4h-1.9l-.6-2.1c-.3.3-.6.6-1 .9s-.8.6-1.3.8c-.5.2-1 .4-1.6.5-.6.1-1.2.2-1.9.2-1.2 0-2.4-.2-3.5-.6-1.1-.4-2-.9-2.9-1.7-.8-.7-1.5-1.7-2-2.8-.5-1.1-.7-2.5-.7-4 0-1.6.2-3 .7-4.2.5-1.2 1.2-2.2 2-2.9.9-.8 1.9-1.4 3-1.7s2.4-.6 3.8-.6c.7 0 1.3.1 1.9.2.6.1 1.1.3 1.6.5s.9.4 1.2.7c.4.3.6.5.8.8l.7-1.8h1.2v5.9zM183.3 112.7c0 .7-.2 1.2-.5 1.6-.3.4-1 .6-1.9.6-.5 0-.9-.1-1.2-.2-.3-.1-.6-.3-.8-.5s-.4-.5-.5-.8-.1-.6-.1-1v-2.1c0-1.4-.2-2.6-.7-3.3-.5-.8-1.3-1.1-2.4-1.1h-4.5v6.8c0 .7.9 1.1 2.7 1.1v.8h-7.2v-.6c1.4 0 2.1-.4 2.1-1.1V99c0-.7-.7-1.1-2.1-1.1V97h9.1c.8 0 1.5.1 2.3.2s1.4.3 2 .6c.6.3 1 .8 1.4 1.4.4.6.5 1.4.5 2.3 0 .6-.1 1.2-.3 1.6-.2.5-.4.9-.8 1.2-.3.3-.7.6-1.1.8-.4.2-.8.4-1.2.5.4.2.8.4 1.1.6.3.2.6.6.8.9.2.4.4.8.5 1.4.1.5.2 1.2.2 1.9v2.5c0 .4.1.6.2.8.1.2.3.3.5.3s.4-.1.6-.3c.1-.2.2-.4.2-.8v-1.1h1v.9zm-12.6-14.2v6.4h4.8c1 0 1.8-.2 2.4-.7.6-.5.9-1.3.9-2.4 0-1.1-.3-1.9-.9-2.5-.6-.5-1.4-.8-2.5-.8h-4.7zM199.9 102.4l-1 .1c-.3-2.8-1.4-4.2-3.5-4.2h-6.2v6.5h3.6c1.2 0 1.8-1 2-3.1h.9l-.4 7.5h-.9c-.2-2.1-.8-3.2-1.8-3.2h-3.5v7.4h5.4c2.9 0 4.5-1.9 4.9-5.7l1 .2-.6 6.8h-15.2v-.8c1.4 0 2.1-.4 2.1-1.1V99c0-.7-.7-1.1-2.1-1.1V97h15.2v5.4zM219.6 113.2c.2.5.9.7 2 .7v.8h-7.9v-.8h2.4c.4 0 .7-.2.7-.5v-.1-.1l-1.3-3.2h-8.2l-1.2 3V113.3c0 .4.3.6 1.1.6h1.6v.8h-6.3v-.9c1.2 0 1.9-.2 2.1-.7l6.6-16.2h2.1l6.3 16.3zm-11.8-4.6h7.1l-3.6-9.1-3.5 9.1zM237.6 104.3l-1 .1c-.1-1.2-.2-2.3-.4-3-.2-.8-.4-1.4-.8-1.9-.3-.4-.7-.8-1.2-.9-.5-.2-1-.3-1.6-.3H230v14.5c0 .7.7 1.1 2.2 1.1v.8h-6.7v-.8c1.4 0 2.1-.4 2.1-1.1V98.3h-2.7c-.6 0-1.2.1-1.6.3-.5.2-.8.5-1.1.9-.3.4-.6 1.1-.7 1.9-.2.8-.3 1.8-.4 3l-1-.1V97h17.6v7.3zM264.5 113.2c.2.5.9.7 2 .7v.8h-7.9v-.8h2.4c.4 0 .7-.2.7-.5v-.1-.1l-1.3-3.2h-8.2l-1.2 3V113.3c0 .4.3.6 1.1.6h1.6v.8h-6.3v-.9c1.2 0 1.9-.2 2.1-.7L256 97h2.1l6.4 16.2zm-11.8-4.6h7.1l-3.6-9.1-3.5 9.1zM283.8 102.9l-1.1.1c-.2-.7-.5-1.4-.9-2-.4-.6-.8-1.1-1.4-1.6-.5-.4-1.1-.8-1.8-1-.7-.2-1.4-.4-2.2-.4-1.2 0-2.2.2-3.1.6-.9.4-1.6 1-2.2 1.7-.6.7-1 1.6-1.2 2.6-.3 1-.4 2-.4 3.1 0 1.3.2 2.4.5 3.3s.8 1.7 1.4 2.4 1.3 1.1 2.2 1.4 1.8.5 2.8.5c.7 0 1.4-.1 2.1-.3.6-.2 1.2-.5 1.7-.9s.9-.8 1.1-1.2c.3-.5.4-1 .4-1.5v-1.3c0-.7-.7-1.1-2.2-1.1v-.8h6.8v.8c-1.4 0-2.2.4-2.2 1.1v6.4h-1.9l-.6-2.1c-.3.3-.6.6-1 .9s-.8.6-1.3.8c-.5.2-1 .4-1.6.5-.6.1-1.2.2-1.9.2-1.2 0-2.4-.2-3.5-.6-1.1-.4-2-.9-2.9-1.7-.8-.7-1.5-1.7-2-2.8-.5-1.1-.7-2.5-.7-4 0-1.6.2-3 .7-4.2s1.2-2.2 2-2.9c.9-.8 1.9-1.4 3-1.7 1.2-.4 2.4-.6 3.8-.6.7 0 1.3.1 1.9.2.6.1 1.1.3 1.6.5s.9.4 1.2.7c.3.3.6.5.8.8l.7-1.8h1.2v5.9zM305.1 113.2c.2.5.9.7 2 .7v.8h-7.9v-.8h2.4c.4 0 .7-.2.7-.5v-.1-.1L301 110h-8.2l-1.2 3V113.3c0 .4.3.6 1.1.6h1.6v.8H288v-.9c1.2 0 1.9-.2 2.1-.7l6.6-16.2h2.1l6.3 16.3zm-11.9-4.6h7.1l-3.6-9.1-3.5 9.1zM315.7 97.9c-1.4 0-2.1.4-2.1 1.1v13.9c0 .7.7 1.1 2.1 1.1v.8H309v-.8c1.4 0 2.2-.4 2.2-1.1V99c0-.7-.7-1.1-2.2-1.1V97h6.7v.9zM336.9 97.9c-1.4 0-2.1.4-2.1 1.1v15.8h-3.1l-10.5-15.3v13.4c0 .7.7 1.1 2.1 1.1v.8h-5.7v-.8c1.4 0 2.1-.4 2.1-1.1V99c0-.7-.7-1.1-2.1-1.1V97h5l10.7 15.6V99c0-.7-.7-1.1-2.1-1.1V97h5.7v.9z"/></g></g></svg>