<svg xmlns="http://www.w3.org/2000/svg" viewBox="0 0 353.3 133.7"><style>.st0{fill:#e0162b}.st1{fill:#0e0751}.st2{fill:#37383b}</style><g id="Layer_1"><path class="st0" d="M116.7 104.9l-1.8-5.1-1.9 5.1-5.7.2 4.5 3.3-1.6 5.1 4.7-3 4.6 3-1.6-5.1 4.5-3.3zM135.5 104.9l-1.9-5.1-1.9 5.1-5.6.2 4.5 3.3-1.6 5.1 4.6-3 4.7 3-1.6-5.1 4.4-3.3z"/><path class="st1" d="M19 108h84v2H19zM26 68h17v16h6V48h-6v15H26V48h-6v36h6zM79 53v-5H58v36h21v-5H64V68h14v-5H64V53zM115.9 84l-13.7-36h-6.5L82 84h6.3l3.6-10h14l3.7 10h6.3zM93.6 69l3.3-9.5c.9-2.4 1.5-4.7 2-6.7.2.7.5 1.7.9 3.2.4 1.4.8 2.5 1 3.2l3.4 10H93.6zM127 48h-6v36h21v-5h-15zM155 84h6V53h11v-5h-28v5h11zM206 84V48h-6v15h-17V48h-5v36h5V68h17v16zM231.6 52.3c1.5 0 3 .2 4.3.7 1.4.4 2.7 1 3.9 1.5l2.2-5c-3.2-1.6-6.6-2.4-10.4-2.4-3.6 0-6.7.8-9.3 2.3-2.6 1.5-4.7 3.7-6 6.6-1.4 2.9-2.1 6.2-2.1 10 0 6 1.4 10.7 4.3 13.9s7.2 4.9 12.5 4.9c3.6 0 7-.5 10-1.6V78c-2 .5-3.3.9-4.7 1.2-1.5.3-3 .5-4.6.5-3.6 0-6.4-1.2-8.3-3.5-1.9-2.3-2.9-5.7-2.9-10.2 0-4.3 1-7.7 2.9-10.1 2.1-2.4 4.7-3.6 8.2-3.6zM253.6 74h14l3.7 10h6.4L264 48h-6.5l-13.7 36h6.3l3.5-10zm5-14.5c.9-2.4 1.5-4.7 2-6.7.2.7.5 1.7.9 3.2.4 1.4.8 2.5 1 3.2l3.4 10h-10.7l3.4-9.7zM306.6 58.4c0-3.6-1.1-6.1-3.4-7.9-2.3-1.8-5.8-2.5-10.5-2.5H282v36h6V70h6.3l8.8 14h6.8l-10.3-16c4.7-2 7-5.1 7-9.6zm-8 4.9c-1.3 1-3.3 1.7-6.1 1.7H288V53h4.3c2.7 0 4.8.3 6.1 1.2 1.4.9 2 2.4 2 4.5.1 2-.6 3.6-1.8 4.6zM336 53v-5h-21v36h21v-5h-15V68h14v-5h-14V53zM145 26h189v2H145z"/><path class="st0" d="M110.2 32.2l4.7-3.1 4.6 3.1-1.6-5.2 4.5-3.3-5.7-.2-1.8-5.1-1.9 5.1-5.7.2 4.5 3.3zM129 32.2l4.6-3.1 4.7 3.1-1.6-5.2 4.4-3.3-5.6-.2-1.9-5.1-1.9 5.1-5.6.2 4.5 3.3z"/><path class="st2" d="M26 33.3c-2 0-2-.4-2-1.1V18.6L29.6 34h2.3L38 18.6v13.6c0 .7-1 1.1-2 1.1v.7h7v-.7c-2 0-3-.4-3-1.1V18.4c0-.7 1-1.1 3-1.1V16h-5.8l-5.9 15.5L25.5 16H20v1.3c1 0 2 .4 2 1.1v13.9c0 .7-1 1.1-2 1.1v.6h6v-.7zM50 33h-1.1c-.7 0-1.1 0-1.1-.5v-.3L49 29h8.2l1.3 3.4V32.6c0 .3-.2.3-.7.3H56v1h7v-.7c-1 0-1.6-.5-1.8-.9L55 16h-2.1l-6.7 16.4c-.2.5-1.2.9-2.2.9v.7h6v-1zm3.1-14.1l3.6 9.1h-7.1l3.5-9.1zM72 33.3c-2 0-2-.4-2-1.1v-4.5l3.8-3.6 5.1 7.9c.2.3.2.5.2.7 0 .1-.1.1-.1.2-.1.1-.3 0-.5 0H76v1h9v-1h-.9c-.6 0-1.1.1-1.4-.1s-.7-.4-1-.8l-6.3-9.5 4.7-4.2c.4-.3.8-.6 1.2-.8.4-.2.6-.3 1.6-.3V16h-7v1h1.2c.4 0 .6.2.8.3.2.1.3.4.3.6 0 .3 0 .6-.2.8L70 26v-7.7c0-.7 0-1.1 2-1.1V16h-7v1.3c1 0 2 .4 2 1.1v13.9c0 .7-1 1.1-2 1.1v.6h7v-.7zM102.2 27.3l-1-.1c-.4 3.8-2 5.8-4.9 5.8H91v-8h3.5c1.1 0 1.7 2 1.8 4h.9l.4-8h-.9c-.1 2-.8 3-2 3H91v-6h6.2c2 0 3.4 1.3 3.6 4l1.1-.2V16H86v1.3c2 0 3 .4 3 1.1v13.9c0 .7-1 1.1-3 1.1v.6h15.7l.5-6.7zM158 107.3c1 0 2 .4 2 1.1v1.3c0 .5-.1 1-.4 1.5s-.6.9-1.1 1.2c-.5.4-1 .7-1.7.9-.6.2-1.3.3-2.1.3-1 0-2-.2-2.8-.5-.9-.3-1.6-.8-2.2-1.4s-1.1-1.4-1.4-2.4c-.3-.9-.5-2.1-.5-3.3 0-1.1.1-2.1.4-3.1s.7-1.8 1.2-2.6c.6-.7 1.3-1.3 2.2-1.7.9-.4 1.9-.6 3.1-.6.8 0 1.6.1 2.2.4.7.2 1.3.6 1.8 1s1 1 1.4 1.6c.4.6.6 1.3.9 2l1-.1V97h-1.1l-.7 1.8c-.2-.3-.5-.5-.8-.8-.4-.3-.8-.5-1.2-.7-.5-.2-1-.4-1.6-.5-.6-.1-1.2-.2-1.9-.2-1.4 0-2.6.2-3.8.6s-2.2 1-3 1.7c-.9.8-1.5 1.8-2 2.9-.5 1.2-.7 2.6-.7 4.2 0 1.5.2 2.9.7 4 .5 1.1 1.1 2.1 2 2.8.8.8 1.8 1.3 2.9 1.7 1.1.4 2.2.6 3.5.6.7 0 1.4-.1 1.9-.2.6-.1 1.1-.3 1.6-.5s.9-.5 1.3-.8.7-.5 1-.8l.6 2.2h2.3v-6.6c0-.7 0-1.1 2-1.1v-.3h-7v.3zM182 112.9c0 .4.1.6-.1.8-.1.2-.3.3-.5.3s-.2-.1-.4-.3c-.1-.2 0-.4 0-.8v-2.5c0-.8-.2-1.4-.3-1.9-.1-.5-.4-1-.6-1.4-.2-.4-.5-.7-.9-.9-.3-.2-.7-.4-1.1-.6.4-.1.8-.2 1.2-.5.4-.2.7-.5 1.1-.8.3-.3.6-.7.8-1.2.2-.5.3-1 .3-1.6 0-1-.2-1.7-.5-2.3-.4-.6-.8-1-1.4-1.4-.6-.3-1.2-.5-2-.6s-1.6-.2-2.4-.2H166v.9c1 0 2 .4 2 1.1v13.9c0 .7-1 1.1-2 1.1v1h7v-1.1c-1 0-2-.4-2-1.1V106h4.2c1.1 0 1.8.4 2.3 1.2.5.8.5 1.9.5 3.3v2.1c0 .4.2.7.3 1s.3.5.5.8.5.4.8.5c.3.1.8.2 1.3.2.9 0 1.4-.2 1.7-.6.3-.4.4-1 .4-1.6v-.9h-1v.9zm-6.5-7.9H171v-7h4.5c1.1 0 1.9.5 2.5 1 .6.5.9 1.5.9 2.6s-.3 2-.9 2.5c-.7.5-1.5.9-2.5.9zM194.6 113H189v-7h3.8c1.1 0 1.7 1 1.8 3h.9l.4-7h-.9c-.1 2-.8 3-2 3h-4v-7h6.5c2 0 3.2 1.6 3.5 4.3l1 .1V97h-15v.9c1 0 2 .4 2 1.1v13.9c0 .7-1 1.1-2 1.1v1.1h14.9l.6-6.9-1-.5c-.4 3.7-2 5.3-4.9 5.3zM219.8 113.2L213.2 97h-2.1l-6.8 16.2c-.2.4-.3.7-2.3.7v1.1h7v-1h-2c-.7 0-1.1-.2-1.1-.7v-.1-.2l1.2-3h8.2l1.3 3.2V113.5c0 .3-.2.5-.7.5H214v1h8v-1.1c-2 0-2-.2-2.2-.7zm-12-4.2l3.5-9.1 3.6 9.1h-7.1zM220 104.3l.9.1c.1-1.2.2-2.3.4-3 .2-.8.4-1.4.7-1.9.3-.4.7-.9 1.1-1.1.5-.2 1-.4 1.6-.4h3.2v14.8c0 .7-1 1.1-3 1.1v1.1h7v-1.1c-1 0-2-.4-2-1.1V98h2.7c.6 0 1.2.3 1.6.4.5.2.8.6 1.2 1 .3.4.6 1.1.8 1.9.2.8.5 1.8.6 3.1l1.2-.1V97h-18v7.3zM264.8 113.2L258.1 97H256l-6.8 16.2c-.2.4-.3.7-2.3.7v1.1h7v-1h-2c-.7 0-1.1-.2-1.1-.7v-.1-.2l1.2-3h8.2l1.3 3.2V113.5c0 .3-.2.5-.7.5h-2v1h8v-1.1c-1.8 0-1.8-.2-2-.7zm-12.1-4.2l3.5-9.1 3.6 9.1h-7.1zM280 107.3c1 0 2 .4 2 1.1v1.3c0 .5-.2 1-.5 1.5s-.7.9-1.2 1.2c-.5.4-1.1.7-1.7.9-.6.2-1.3.3-2.1.3-1 0-2-.2-2.8-.5s-1.6-.8-2.2-1.4-1.1-1.4-1.4-2.4-.5-2.1-.5-3.3c0-1.1.1-2.1.4-3.1.3-1 .7-1.8 1.2-2.6.6-.7 1.3-1.3 2.2-1.7.9-.4 1.9-.6 3.1-.6.8 0 1.6.1 2.2.4.7.2 1.3.6 1.8 1s1 1 1.4 1.6c.4.6.8 1.3 1 2l1.2-.1V97h-1.4l-.7 1.8c-.2-.3-.5-.5-.8-.8-.4-.3-.8-.5-1.2-.7s-1-.4-1.6-.5c-.6-.1-1.2-.2-1.9-.2-1.4 0-2.6.2-3.8.6-1.2.4-2.2 1-3 1.7-.9.8-1.5 1.8-2 2.9s-.7 2.6-.7 4.2c0 1.5.2 2.9.7 4 .5 1.1 1.1 2.1 2 2.8.8.8 1.8 1.3 2.9 1.7 1.1.4 2.2.6 3.5.6.7 0 1.4-.1 1.9-.2.6-.1 1.1-.3 1.6-.5s.9-.5 1.3-.8.7-.5 1-.8l.6 2.2h1.6v-6.6c0-.7 1-1.1 2-1.1v-.3h-6v.3zM305 113.2L298.6 97h-2.1l-6.5 16.2c-.2.4-1 .7-2 .7v1.1h6v-1h-1.5c-.7 0-1.1-.2-1.1-.7v-.1-.2l1.2-3h8.2l1.3 3.2V113.5c0 .3-.2.5-.7.5H299v1h8v-1.1c-1 0-1.8-.2-2-.7zm-11.8-4.2l3.5-9.1 3.6 9.1h-7.1zM309 97.9c1 0 2 .4 2 1.1v13.9c0 .7-1 1.1-2 1.1v1.1h7V114c-2 0-2-.4-2-1.1V99c0-.7 0-1.1 2-1.1V97h-7v.9zM331 97v.9c2 0 2 .4 2 1.1v13.7L322.6 97H318v.9c1 0 2 .4 2 1.1v13.9c0 .7-1 1.1-2 1.1v1.1h5V114c-1 0-2-.4-2-1.1V99.5l10.7 15.5h3.3V99c0-.7 0-1.1 2-1.1V97h-6z"/></g></svg>