<svg id="Layer_1" xmlns="http://www.w3.org/2000/svg" viewBox="0 0 300 300"><style>.st0{fill:none;stroke:#26499f;stroke-width:.75;stroke-miterlimit:10}</style><path class="st0" d="M127 254.5c.6-2.4 2.1-3.9-.9-6.4-3-2.6-9.4-6-7.2-8.7C121 236.6 222 224 222 224c0-2.4-4.6-10.4-5.2-12.7-.5-2.3 1.2-10.8 1.2-14.5 0-3.7-3.7-6.5-5.1-8.3-1.5-1.7 0-7.9 1.4-9.3 1.4-1.4 1.2-5.7 0-7.4-1.1-1.7.9-2.8 2.5-3.9 1.7-1.2 2.6-2.3 2.6-4.8 0-2.6-1.7-1.2-2.6-4.3-.8-3.1.6-4.8-.8-6-1.4-1.1-4-2-4-2L176 37.4c-30.8 3.4-65.5 7.2-98.1 10.2.7 1.4 1.5 2.6 2.6 3.4 3.1 2.3 1.7 3.7 1.7 5.1 0 1.4-1.7 145.8-1.7 145.8L89 269c2.2-1.3 4.5-1.5 8.1-.8 4.3.8 3.8.4 4-3.1.1-3.5-.7-12.5 1.6-13.4 2.3-.8 7.4.5 6.2 3.6-1.1 3.1-3.8 3.6-2.2 6 1.7 2.4 6.5 3 6.8 5.7.3 2.7 2.1 3.7-2.3 4.4-4.4.7-8.4 1.7-5.4 2.2 3 .6 4.7-.4 9.1-.8 4.4-.5 5.4.8 7.1-2.8 1.7-3.5 1.6-5.5 3.7-3.7l1.3 1.3c1.2-2.4 2.7-5.2 2.6-6.2-.1-1.6-3.3-4.6-2.6-6.9z"/></svg>